<svg id="svg" version="1.1" xmlns="http://www.w3.org/2000/svg" xmlns:xlink="http://www.w3.org/1999/xlink" width="400" height="400" viewBox="0, 0, 400,400"><g id="svgg"><path id="path0" d="M194.141 32.355 C 154.093 35.075,116.506 65.310,121.950 90.424 C 123.941 99.606,130.530 107.756,139.768 112.462 C 140.449 112.809,140.591 112.988,140.693 113.631 C 140.853 114.628,141.919 115.998,143.151 116.789 C 144.009 117.339,144.141 117.508,144.141 118.063 C 144.141 118.786,145.849 129.253,146.592 133.084 C 147.144 135.928,147.157 135.820,146.305 135.523 C 142.951 134.354,139.731 138.211,139.329 143.882 C 138.675 153.084,146.034 167.652,152.375 169.709 C 153.069 169.934,153.099 169.984,153.417 171.445 C 155.763 182.225,158.781 189.806,162.881 195.215 L 163.621 196.191 163.739 203.181 L 163.857 210.171 163.428 209.871 C 162.496 209.218,162.342 209.342,157.171 214.893 C 154.445 217.820,151.094 221.466,149.725 222.994 C 146.882 226.169,147.817 225.674,141.309 227.449 C 139.482 227.947,136.950 228.661,135.681 229.034 L 133.373 229.714 132.506 228.914 C 129.749 226.373,125.728 225.393,122.656 226.513 C 121.686 226.867,110.416 231.224,102.734 234.215 C 101.069 234.864,96.807 236.518,93.262 237.892 C 80.842 242.706,80.936 242.656,80.341 244.705 C 79.949 246.051,80.057 246.815,81.047 249.708 C 81.994 252.477,81.989 252.157,81.094 252.668 C 70.993 258.434,63.210 273.696,58.499 296.973 C 56.203 308.318,54.746 319.075,52.443 341.699 C 51.244 353.476,50.560 358.960,49.670 363.938 C 49.295 366.030,49.207 366.929,49.352 367.160 C 49.639 367.615,349.608 367.758,349.985 367.303 C 350.162 367.090,350.080 366.217,349.621 363.445 C 348.879 358.959,348.034 351.934,347.265 343.848 C 345.676 327.135,345.039 321.424,343.928 313.965 C 339.099 281.522,331.596 262.871,319.852 254.115 L 317.443 252.319 318.328 249.939 C 320.363 244.466,319.769 243.384,313.379 240.922 C 311.230 240.095,306.616 238.288,303.125 236.907 C 278.859 227.311,276.463 226.414,274.689 226.255 C 272.073 226.023,269.219 226.978,267.307 228.725 C 266.026 229.896,266.607 229.917,261.762 228.523 C 259.536 227.882,256.089 226.915,254.102 226.374 C 250.593 225.419,250.466 225.367,249.707 224.561 C 249.277 224.104,247.036 221.669,244.727 219.149 C 235.149 208.700,235.697 209.207,234.686 209.869 L 234.180 210.201 234.180 203.371 L 234.180 196.541 234.830 195.682 C 239.275 189.816,243.566 179.305,244.838 171.170 C 245.001 170.123,245.029 170.091,246.292 169.481 C 254.646 165.450,261.430 147.112,257.593 138.935 C 256.373 136.334,253.655 134.788,251.646 135.552 C 251.014 135.793,250.910 136.739,252.518 127.600 C 253.164 123.928,253.799 120.165,253.928 119.239 C 254.160 117.583,254.178 117.544,254.963 117.000 C 256.511 115.925,257.615 114.400,257.616 113.333 C 257.617 112.768,257.725 112.647,258.643 112.182 C 267.810 107.538,274.734 98.646,276.290 89.520 C 281.051 61.588,235.048 29.576,194.141 32.355 M193.147 66.209 C 193.616 66.853,194.425 67.778,194.945 68.264 L 195.890 69.149 195.099 69.864 C 191.328 73.271,193.926 79.976,199.010 79.959 C 204.064 79.942,206.537 73.985,203.066 70.188 L 202.097 69.127 203.353 67.816 C 204.044 67.094,204.810 66.174,205.055 65.771 L 205.501 65.039 213.785 65.039 C 218.342 65.039,222.070 65.107,222.070 65.190 C 222.070 65.272,221.661 66.041,221.161 66.899 C 218.230 71.924,215.414 73.855,210.280 74.360 L 208.744 74.512 208.382 75.939 C 205.861 85.881,191.688 85.551,189.438 75.498 L 189.212 74.487 187.331 74.276 C 182.622 73.748,179.908 71.888,177.190 67.324 C 176.523 66.204,175.977 65.231,175.977 65.163 C 175.977 65.095,179.648 65.039,184.136 65.039 L 192.295 65.039 193.147 66.209 M205.566 89.458 C 224.259 90.564,242.691 95.794,254.187 103.253 L 256.247 104.590 256.249 108.049 L 256.250 111.509 254.443 110.332 C 249.466 107.090,240.044 103.128,231.987 100.889 C 202.522 92.702,167.264 96.425,144.531 110.125 C 143.296 110.869,142.226 111.443,142.153 111.401 C 142.000 111.310,141.957 105.382,142.106 104.790 C 142.265 104.157,145.624 102.092,149.902 99.998 C 165.979 92.127,186.146 88.309,205.566 89.458 M161.651 122.253 C 163.589 122.620,170.728 123.442,175.293 123.822 C 194.625 125.435,219.409 124.983,234.431 122.743 C 236.304 122.464,236.350 122.467,236.774 122.871 C 237.012 123.098,237.910 123.820,238.770 124.476 C 244.433 128.800,245.038 131.547,243.164 144.424 C 242.179 151.188,242.290 151.874,244.556 153.003 C 247.569 154.505,247.762 154.202,249.336 145.508 C 250.713 137.899,250.658 138.086,251.650 137.616 C 255.361 135.855,257.941 142.503,256.380 149.805 C 254.576 158.251,249.075 166.782,244.594 168.085 C 243.988 168.261,243.533 168.516,243.474 168.712 C 243.419 168.894,243.022 170.611,242.591 172.527 C 239.483 186.369,234.742 194.783,225.059 203.641 C 215.936 211.988,210.022 214.382,198.633 214.339 C 188.037 214.298,181.717 211.562,172.758 203.137 C 162.705 193.685,158.831 186.693,155.372 171.760 C 154.616 168.495,154.362 167.970,153.534 167.967 C 150.126 167.955,143.476 157.968,141.894 150.488 C 140.124 142.119,142.556 135.591,146.662 137.686 L 147.411 138.068 147.942 140.958 C 150.390 154.277,150.271 153.976,152.791 153.243 C 154.980 152.607,155.895 151.001,155.512 148.466 C 153.175 133.024,153.463 130.110,157.809 125.226 C 158.893 124.008,159.919 122.800,160.088 122.541 C 160.442 122.001,160.383 122.012,161.651 122.253 M177.832 138.073 C 173.366 139.161,172.888 145.415,177.134 147.221 C 178.736 147.902,181.068 147.418,182.346 146.139 C 185.688 142.798,182.419 136.957,177.832 138.073 M218.364 138.105 C 215.440 138.676,213.779 142.221,215.170 144.921 C 216.500 147.501,219.402 148.310,221.919 146.801 C 226.457 144.079,223.596 137.083,218.364 138.105 M183.590 182.039 C 183.236 182.700,183.563 183.186,184.967 184.086 C 193.242 189.390,204.046 189.609,212.598 184.647 C 215.047 183.225,215.472 182.679,214.682 181.964 C 214.173 181.503,214.061 181.532,212.163 182.621 C 203.622 187.518,193.119 187.369,185.671 182.244 C 184.647 181.540,183.896 181.466,183.590 182.039 M172.656 205.681 C 181.560 213.625,188.137 216.282,198.926 216.291 C 211.332 216.302,218.363 213.110,228.664 202.792 C 230.626 200.827,232.274 199.219,232.326 199.219 C 232.379 199.219,232.422 202.082,232.422 205.581 L 232.422 211.942 228.271 215.989 C 220.156 223.903,201.838 241.256,199.495 243.250 L 198.820 243.825 197.896 242.945 C 197.388 242.460,194.736 239.961,192.002 237.389 C 189.268 234.818,185.747 231.484,184.178 229.980 C 182.608 228.477,177.792 223.864,173.475 219.730 L 165.625 212.213 165.625 205.497 L 165.625 198.780 168.311 201.490 C 169.788 202.981,171.743 204.867,172.656 205.681 M171.875 220.809 C 176.367 225.137,186.964 235.242,192.241 240.231 C 195.010 242.848,197.208 245.052,197.124 245.128 C 196.964 245.274,188.303 252.435,186.133 254.216 C 184.386 255.649,180.093 259.162,178.320 260.608 C 177.515 261.265,174.803 263.519,172.294 265.618 C 167.254 269.835,167.237 269.849,167.134 269.720 C 162.112 263.399,151.296 238.076,148.948 227.141 C 148.855 226.708,149.543 225.886,154.425 220.598 C 157.496 217.272,160.592 213.916,161.303 213.141 L 162.598 211.732 165.918 215.000 C 167.744 216.798,170.425 219.412,171.875 220.809 M238.107 214.650 C 239.546 216.208,241.162 217.976,241.699 218.577 C 242.236 219.179,244.106 221.218,245.853 223.107 L 249.031 226.542 248.646 228.309 C 247.820 232.090,245.678 238.595,243.461 244.053 C 239.886 252.852,236.306 260.171,231.358 268.800 C 231.026 269.378,230.739 269.676,230.598 269.591 C 230.331 269.429,227.584 267.185,222.168 262.707 C 220.020 260.931,215.800 257.499,212.791 255.080 C 209.782 252.662,205.751 249.411,203.834 247.856 L 200.348 245.029 201.691 243.755 C 202.429 243.054,204.966 240.684,207.327 238.488 C 216.054 230.374,235.000 212.247,235.127 211.891 C 235.241 211.570,235.399 211.717,238.107 214.650 M261.035 230.282 C 263.076 230.848,264.771 231.329,264.802 231.352 C 264.833 231.376,264.635 232.059,264.363 232.870 C 262.857 237.356,264.889 242.550,268.945 244.583 C 269.998 245.111,287.033 252.344,287.223 252.344 C 287.276 252.344,288.173 252.730,289.216 253.203 C 290.260 253.676,293.794 255.206,297.070 256.604 C 300.347 258.002,304.346 259.713,305.957 260.405 C 313.225 263.528,313.638 263.355,316.124 256.152 C 316.421 255.293,316.729 254.514,316.810 254.422 C 317.063 254.132,318.796 255.458,318.650 255.829 C 318.580 256.007,317.864 258.086,317.059 260.449 C 308.085 286.793,303.603 309.468,302.331 334.961 C 301.935 342.903,302.109 362.165,302.608 365.527 C 302.626 365.652,300.755 365.741,297.412 365.775 L 292.188 365.827 292.188 352.844 L 292.188 339.862 293.108 339.455 C 293.615 339.231,294.097 338.941,294.180 338.811 C 294.521 338.274,294.361 320.186,294.013 319.897 C 293.512 319.481,231.166 319.448,230.501 319.863 L 230.044 320.148 230.110 342.936 L 230.176 365.723 223.919 365.774 L 217.661 365.826 217.216 360.403 C 214.830 331.322,212.281 309.217,209.160 290.527 C 208.249 285.074,206.482 275.876,206.080 274.493 C 205.918 273.937,206.030 273.705,207.500 271.564 C 213.023 263.516,215.304 260.226,215.500 260.027 C 215.668 259.855,216.373 260.333,218.381 261.980 C 221.526 264.559,226.271 268.438,228.870 270.557 C 231.356 272.583,231.137 272.670,233.406 268.759 C 241.040 255.600,247.897 239.546,250.303 229.199 C 250.478 228.447,250.651 227.731,250.687 227.608 C 250.732 227.458,251.838 227.693,254.039 228.319 C 255.846 228.833,258.994 229.717,261.035 230.282 M147.786 229.785 C 150.528 241.256,160.657 264.250,166.125 271.420 C 166.952 272.504,166.574 272.752,175.982 264.944 C 178.181 263.119,180.498 261.209,181.130 260.700 L 182.279 259.775 183.063 260.893 C 183.495 261.509,185.632 264.658,187.811 267.893 L 191.775 273.775 190.607 279.514 C 187.702 293.789,185.213 310.415,183.109 329.590 C 182.004 339.666,180.595 354.986,180.272 360.449 C 180.152 362.490,180.009 364.535,179.956 364.992 L 179.858 365.825 171.619 365.774 L 163.379 365.723 163.379 342.930 C 163.379 327.028,163.316 320.075,163.170 319.929 C 162.869 319.626,100.822 319.645,100.457 319.948 C 100.245 320.124,100.195 321.932,100.195 329.512 L 100.195 338.858 100.635 339.132 C 100.876 339.283,101.501 339.564,102.022 339.757 C 102.955 340.102,102.968 340.118,102.854 340.806 C 102.791 341.190,102.738 346.975,102.737 353.662 L 102.734 365.820 98.702 365.820 L 94.670 365.820 94.795 363.721 C 96.554 334.160,93.052 304.472,83.892 271.289 C 83.314 269.194,82.171 264.993,81.352 261.954 C 80.533 258.914,79.817 256.306,79.760 256.157 C 79.644 255.855,82.229 254.011,82.433 254.251 C 82.500 254.330,82.930 255.493,83.389 256.836 C 84.798 260.962,85.670 262.071,87.650 262.252 C 88.715 262.349,89.300 262.118,102.637 256.347 C 107.041 254.441,112.183 252.241,114.063 251.458 C 115.942 250.675,119.194 249.315,121.289 248.436 C 123.384 247.556,126.227 246.365,127.608 245.789 C 134.170 243.051,137.054 238.038,135.073 232.813 C 134.890 232.329,134.695 231.795,134.641 231.626 C 134.561 231.375,135.225 231.128,138.219 230.292 C 140.240 229.727,142.993 228.930,144.336 228.521 C 147.475 227.564,147.233 227.476,147.786 229.785 M121.263 234.961 C 122.126 237.700,123.224 241.084,123.703 242.480 C 124.183 243.877,124.561 245.030,124.543 245.042 C 124.173 245.311,120.630 246.658,120.502 246.578 C 120.402 246.517,119.607 244.251,118.733 241.544 C 117.860 238.836,116.759 235.435,116.286 233.985 C 115.813 232.535,115.493 231.324,115.575 231.293 C 115.656 231.262,116.558 230.902,117.578 230.493 C 118.599 230.084,119.492 229.801,119.564 229.865 C 119.636 229.928,120.401 232.222,121.263 234.961 M282.038 230.641 C 283.225 231.128,283.879 231.501,283.865 231.683 C 283.833 232.096,279.079 246.358,278.911 246.544 C 278.832 246.630,277.896 246.340,276.830 245.900 L 274.893 245.099 277.401 237.491 C 278.781 233.307,279.973 229.883,280.050 229.883 C 280.127 229.883,281.021 230.224,282.038 230.641 M112.397 232.861 C 113.228 235.405,117.057 247.475,117.125 247.768 C 117.207 248.120,116.978 248.275,115.397 248.940 C 113.107 249.904,113.302 249.948,112.752 248.340 C 112.229 246.808,108.378 234.574,108.331 234.292 C 108.265 233.897,112.274 232.486,112.397 232.861 M289.170 233.378 C 290.353 233.841,291.105 234.242,291.093 234.403 C 291.025 235.275,286.078 249.825,285.877 249.747 C 284.562 249.235,282.473 248.333,282.294 248.199 C 282.130 248.076,282.220 247.599,282.631 246.427 C 282.939 245.546,284.080 242.078,285.166 238.721 C 286.251 235.364,287.159 232.617,287.183 232.617 C 287.207 232.617,288.101 232.960,289.170 233.378 M105.991 238.379 C 106.467 239.883,107.556 243.281,108.409 245.930 C 109.263 248.579,109.959 250.864,109.956 251.008 C 109.949 251.318,106.248 252.814,106.036 252.592 C 105.908 252.459,103.174 243.970,101.604 238.835 L 101.027 236.946 102.809 236.257 C 105.169 235.345,104.991 235.226,105.991 238.379 M296.387 236.320 C 297.671 236.828,298.323 237.185,298.290 237.363 C 298.227 237.701,293.340 252.812,293.270 252.886 C 293.230 252.928,289.584 251.426,289.293 251.248 C 289.240 251.216,294.349 235.545,294.411 235.548 C 294.424 235.548,295.313 235.896,296.387 236.320 M98.024 238.916 C 98.136 239.265,98.805 241.440,99.511 243.750 C 100.218 246.060,101.240 249.292,101.783 250.934 C 102.327 252.576,102.730 254.026,102.680 254.157 C 102.596 254.375,99.039 255.945,98.920 255.817 C 98.873 255.767,94.142 241.082,93.861 240.115 C 93.754 239.747,93.933 239.629,95.552 239.005 C 97.793 238.142,97.777 238.143,98.024 238.916 M303.736 239.170 C 304.736 239.551,305.586 239.896,305.626 239.936 C 305.666 239.976,304.688 243.070,303.452 246.811 C 302.216 250.552,301.054 254.097,300.869 254.688 C 300.685 255.278,300.502 255.819,300.463 255.889 C 300.399 256.002,296.794 254.477,296.551 254.234 C 296.403 254.086,301.551 238.477,301.748 238.477 C 301.843 238.477,302.737 238.789,303.736 239.170 M93.168 249.023 C 94.480 253.267,95.589 256.870,95.634 257.031 C 95.715 257.320,91.533 259.177,91.309 258.952 C 91.207 258.850,88.948 251.779,87.241 246.217 C 86.285 243.103,86.206 242.718,86.507 242.639 C 86.693 242.590,87.674 242.215,88.686 241.805 C 89.699 241.394,90.585 241.115,90.655 241.184 C 90.725 241.252,91.856 244.780,93.168 249.023 M311.187 242.090 C 312.338 242.520,313.279 242.933,313.280 243.008 C 313.283 243.399,307.953 259.192,307.835 259.141 C 307.759 259.109,306.754 258.690,305.601 258.210 C 304.449 257.731,303.540 257.247,303.583 257.136 C 303.625 257.025,304.827 253.393,306.254 249.066 C 307.681 244.739,308.904 241.223,308.972 241.253 C 309.040 241.284,310.037 241.660,311.187 242.090 M322.461 258.935 C 334.069 270.847,341.381 297.139,345.015 340.039 C 345.669 347.753,346.938 358.756,347.670 363.057 C 347.877 364.276,348.047 365.386,348.047 365.524 C 348.047 365.727,343.859 365.781,326.295 365.807 L 304.544 365.839 304.415 364.121 C 302.623 340.274,304.965 312.847,310.935 287.782 C 313.177 278.365,319.733 257.032,320.384 257.031 C 320.506 257.031,321.441 257.888,322.461 258.935 M79.180 261.035 C 79.689 262.969,80.579 266.265,81.157 268.359 C 85.707 284.849,88.023 294.881,89.927 306.348 C 92.624 322.594,93.876 345.276,92.976 361.621 C 92.870 363.555,92.781 365.291,92.778 365.479 C 92.774 365.802,91.656 365.820,72.070 365.820 C 52.021 365.820,51.367 365.809,51.367 365.457 C 51.367 365.258,51.668 363.167,52.036 360.811 C 52.978 354.772,53.391 351.345,54.395 341.211 C 59.270 292.032,65.075 270.552,76.734 258.547 C 78.269 256.967,78.050 256.744,79.180 261.035 M239.776 301.920 C 239.181 302.578,239.392 303.183,241.070 305.621 C 244.083 309.998,247.990 312.202,253.174 312.446 L 255.470 312.554 255.864 313.192 C 258.275 317.091,264.059 317.477,267.489 313.966 L 268.865 312.558 271.103 312.446 C 276.492 312.177,280.835 309.554,283.370 305.037 C 285.410 301.402,285.794 301.548,274.392 301.609 L 264.941 301.660 264.481 302.566 C 263.498 304.498,260.725 304.428,259.525 302.442 L 258.994 301.563 249.547 301.563 C 240.643 301.563,240.081 301.583,239.776 301.920 M281.977 303.593 C 282.098 303.710,280.193 306.299,279.410 307.082 C 277.054 309.439,273.244 310.734,268.652 310.741 L 267.480 310.742 267.003 311.641 C 265.643 314.205,262.028 315.174,259.199 313.732 C 258.172 313.209,257.704 312.696,256.719 311.017 C 256.531 310.697,256.217 310.646,254.180 310.607 C 248.885 310.505,245.085 308.410,242.292 304.053 L 241.947 303.516 249.978 303.516 C 254.930 303.516,258.008 303.587,258.008 303.702 C 258.008 304.098,259.453 305.263,260.306 305.554 C 262.412 306.271,264.438 305.774,265.737 304.220 L 266.491 303.317 274.213 303.434 C 278.459 303.498,281.953 303.569,281.977 303.593 M161.867 329.590 L 161.816 337.890 153.223 340.807 C 148.496 342.411,141.408 344.823,137.472 346.166 C 133.536 347.510,130.278 348.572,130.232 348.526 C 130.187 348.481,127.167 347.333,123.522 345.975 C 119.877 344.617,115.137 342.848,112.988 342.044 C 110.840 341.241,107.456 339.989,105.469 339.262 L 101.855 337.941 101.805 329.615 L 101.754 321.289 131.836 321.289 L 161.918 321.289 161.867 329.590 M292.702 329.616 L 292.676 337.943 289.746 338.975 C 286.831 340.002,279.474 342.654,271.094 345.699 C 268.677 346.577,265.925 347.574,264.980 347.915 L 263.260 348.535 257.558 346.610 C 254.422 345.551,247.307 343.145,241.748 341.263 L 231.641 337.841 231.641 329.565 L 231.641 321.289 262.185 321.289 L 292.729 321.289 292.702 329.616 M128.981 334.944 C 125.945 336.323,126.379 340.970,129.633 341.916 C 131.501 342.459,133.324 341.590,134.072 339.801 C 135.411 336.595,132.166 333.498,128.981 334.944 M260.906 335.134 C 258.561 336.621,258.624 340.011,261.024 341.497 C 263.886 343.269,267.487 340.593,266.612 337.345 C 265.959 334.917,263.035 333.784,260.906 335.134 M131.794 336.438 C 133.107 337.358,133.115 339.475,131.808 340.151 C 130.291 340.935,128.516 339.927,128.516 338.281 C 128.516 336.643,130.496 335.529,131.794 336.438 M264.199 336.515 C 265.412 337.255,265.433 339.272,264.235 340.111 C 263.475 340.644,262.177 340.528,261.518 339.869 C 259.585 337.936,261.861 335.089,264.199 336.515 M161.719 352.637 L 161.719 365.625 146.826 365.625 C 138.635 365.626,125.759 365.684,118.213 365.755 L 104.492 365.884 104.492 353.274 L 104.492 340.664 106.006 341.224 C 106.838 341.532,108.970 342.323,110.742 342.982 C 112.515 343.642,115.591 344.779,117.578 345.508 C 119.565 346.238,123.205 347.591,125.665 348.515 C 128.126 349.439,130.261 350.195,130.411 350.195 C 130.669 350.195,159.291 340.519,160.742 339.941 C 161.118 339.791,161.492 339.664,161.572 339.659 C 161.653 339.653,161.719 345.493,161.719 352.637 M238.895 342.006 C 242.693 343.302,249.756 345.688,254.590 347.307 L 263.379 350.252 268.262 348.452 C 270.947 347.462,275.078 345.962,277.441 345.120 C 279.805 344.278,283.713 342.878,286.127 342.009 C 288.541 341.140,290.541 340.430,290.572 340.430 C 290.603 340.430,290.605 346.102,290.578 353.035 L 290.527 365.640 286.816 365.681 C 284.775 365.704,271.570 365.701,257.471 365.674 L 231.836 365.625 231.836 352.637 C 231.836 345.493,231.870 339.648,231.912 339.648 C 231.954 339.648,235.096 340.709,238.895 342.006 " stroke="none" fill="#21242a" fill-rule="evenodd"></path><path id="path1" d="M0.000 200.000 L 0.000 400.000 200.000 400.000 L 400.000 400.000 400.000 200.000 L 400.000 0.000 200.000 0.000 L 0.000 0.000 0.000 200.000 M203.613 32.230 C 240.174 34.641,275.772 59.942,276.704 84.180 C 277.132 95.286,270.103 106.371,258.935 112.207 C 257.940 112.727,257.813 112.861,257.813 113.394 C 257.812 114.128,256.855 115.626,255.883 116.414 C 255.494 116.729,254.985 117.142,254.751 117.332 C 254.379 117.633,254.192 118.480,253.229 124.219 C 252.625 127.817,251.932 131.839,251.689 133.156 C 251.302 135.245,251.285 135.538,251.551 135.460 C 252.582 135.156,253.014 135.153,254.011 135.443 C 259.881 137.149,260.520 148.199,255.368 158.887 C 252.933 163.939,249.178 168.351,246.151 169.720 L 245.194 170.152 244.834 171.941 C 242.997 181.091,239.115 190.421,234.935 195.731 L 234.375 196.443 234.375 203.213 L 234.375 209.983 234.809 209.679 C 235.614 209.116,236.163 209.569,240.629 214.475 C 249.826 224.580,250.553 225.335,251.208 225.464 C 251.921 225.604,261.075 228.160,264.147 229.076 L 266.088 229.655 267.248 228.605 C 269.190 226.848,270.819 226.270,273.828 226.270 L 276.270 226.270 280.273 227.797 C 282.476 228.637,286.914 230.369,290.137 231.647 C 301.156 236.014,307.520 238.516,312.305 240.364 C 320.009 243.339,320.540 244.158,318.474 249.900 C 317.855 251.623,317.636 252.461,317.793 252.513 C 320.648 253.465,327.090 260.518,330.366 266.281 C 339.062 281.576,343.652 302.729,347.560 345.508 C 348.200 352.511,349.023 359.067,349.914 364.238 C 350.368 366.874,350.377 367.074,350.071 367.412 C 349.552 367.986,50.100 367.978,49.391 367.404 L 48.935 367.034 49.268 365.402 C 50.109 361.285,51.101 353.632,52.149 343.164 C 52.963 335.033,54.400 322.001,55.083 316.550 C 59.275 283.093,67.770 261.381,79.785 253.416 C 80.752 252.775,81.584 252.223,81.634 252.190 C 81.684 252.156,81.353 251.012,80.898 249.648 C 79.753 246.212,79.811 244.397,81.113 243.001 C 81.903 242.154,82.418 241.942,103.613 233.751 C 105.547 233.004,110.293 231.158,114.160 229.649 C 118.027 228.141,121.800 226.697,122.544 226.441 C 125.767 225.334,129.589 226.190,132.401 228.650 L 133.430 229.550 138.346 228.159 C 141.050 227.394,144.121 226.533,145.172 226.247 L 147.082 225.727 149.659 222.873 C 159.939 211.493,162.528 208.934,163.139 209.546 C 163.260 209.667,163.430 209.766,163.516 209.766 C 163.602 209.766,163.672 206.767,163.672 203.102 L 163.672 196.438 162.621 195.042 C 158.729 189.871,155.724 182.389,153.435 172.168 L 152.997 170.215 151.682 169.531 C 143.099 165.070,136.350 146.652,140.398 138.737 C 141.658 136.272,144.388 134.784,146.450 135.438 C 146.965 135.602,146.964 135.717,146.474 133.203 C 145.913 130.323,144.197 120.069,144.034 118.620 C 143.901 117.433,143.883 117.405,142.853 116.695 C 141.719 115.915,140.700 114.561,140.518 113.595 C 140.418 113.066,140.128 112.829,138.256 111.747 C 118.245 100.170,115.854 78.779,132.554 60.742 C 147.852 44.221,170.702 33.781,195.117 32.158 C 197.197 32.020,200.894 32.051,203.613 32.230 M156.343 218.689 C 152.908 222.400,149.844 225.741,149.534 226.113 L 148.970 226.789 149.710 229.654 C 152.534 240.586,159.293 256.387,165.773 267.208 L 167.248 269.671 172.545 265.255 C 175.458 262.827,178.596 260.225,179.517 259.473 C 180.439 258.721,182.107 257.361,183.223 256.450 C 185.792 254.356,196.497 245.521,196.837 245.214 C 197.040 245.031,195.985 243.936,191.644 239.826 C 182.125 230.813,169.947 219.165,166.206 215.492 L 162.588 211.940 156.343 218.689 M233.858 213.368 C 228.805 218.359,214.622 231.856,204.622 241.192 C 201.329 244.266,200.610 245.027,200.818 245.224 C 201.155 245.543,207.232 250.468,213.574 255.564 C 216.367 257.808,220.366 261.060,222.461 262.791 C 230.625 269.535,230.707 269.599,230.887 269.313 C 234.362 263.772,240.001 252.300,243.404 243.848 C 245.947 237.529,249.031 227.701,248.792 226.674 C 248.715 226.340,235.629 212.022,235.382 212.001 C 235.311 211.995,234.626 212.610,233.858 213.368 M250.330 229.631 C 247.983 239.088,242.277 252.968,236.134 264.160 C 232.361 271.033,231.257 272.626,230.614 272.121 C 230.481 272.016,229.536 271.249,228.516 270.416 C 226.811 269.026,225.542 267.992,221.777 264.926 C 221.025 264.314,219.443 263.020,218.262 262.051 C 217.080 261.082,216.012 260.211,215.888 260.117 C 215.735 260.000,215.203 260.614,214.210 262.053 C 213.411 263.212,211.250 266.339,209.409 269.003 L 206.062 273.845 206.435 275.448 C 209.794 289.893,213.949 320.650,216.400 349.219 C 217.094 357.314,217.770 365.328,217.772 365.479 C 217.773 365.559,220.556 365.625,223.957 365.625 L 230.140 365.625 230.003 343.018 C 229.878 322.462,229.894 320.370,230.178 319.971 L 230.491 319.531 262.194 319.531 C 291.218 319.531,293.920 319.558,294.161 319.849 C 294.449 320.196,294.565 337.670,294.286 338.693 C 294.185 339.064,293.908 339.294,293.265 339.539 L 292.383 339.876 292.383 352.751 L 292.383 365.625 297.479 365.625 L 302.576 365.625 302.457 364.697 C 301.974 360.908,301.795 344.421,302.149 336.328 C 303.109 314.384,306.829 292.624,313.051 272.559 C 313.584 270.840,314.300 268.511,314.641 267.383 C 314.982 266.255,316.002 263.166,316.908 260.518 C 318.848 254.845,318.737 255.613,317.725 254.916 L 316.895 254.345 315.835 257.353 C 313.442 264.148,314.245 264.202,295.410 256.002 C 294.551 255.628,291.826 254.465,289.355 253.418 C 286.885 252.371,283.369 250.877,281.543 250.098 C 279.717 249.320,276.597 248.007,274.609 247.181 C 269.118 244.900,267.963 244.294,266.665 243.013 C 263.905 240.289,262.941 236.043,264.312 232.649 C 264.580 231.987,264.761 231.445,264.716 231.445 C 264.671 231.445,263.429 231.102,261.956 230.683 C 260.483 230.264,257.484 229.421,255.293 228.810 C 253.101 228.199,251.206 227.660,251.080 227.612 C 250.933 227.555,250.668 228.267,250.330 229.631 M143.750 228.820 C 142.192 229.285,139.600 230.029,137.988 230.475 C 134.478 231.445,134.672 231.290,135.176 232.723 C 136.408 236.228,135.459 240.118,132.688 242.921 C 131.326 244.298,130.581 244.689,124.414 247.264 C 122.319 248.139,119.067 249.500,117.188 250.289 C 115.308 251.078,112.935 252.073,111.914 252.501 C 110.894 252.929,106.763 254.705,102.734 256.447 C 92.124 261.036,88.541 262.501,87.937 262.496 C 85.791 262.478,84.108 260.193,82.833 255.566 C 82.450 254.178,82.401 254.164,81.078 255.062 C 80.421 255.509,79.883 255.939,79.883 256.019 C 79.883 256.099,80.184 257.217,80.551 258.502 C 80.919 259.788,81.718 262.729,82.326 265.039 C 82.934 267.349,83.814 270.601,84.282 272.266 C 91.310 297.312,94.430 317.296,95.152 341.892 C 95.368 349.238,95.154 362.799,94.788 364.990 L 94.682 365.625 98.708 365.625 L 102.734 365.625 102.732 352.881 L 102.730 340.137 101.512 339.647 L 100.293 339.157 100.166 338.084 C 99.828 335.238,99.986 320.190,100.357 319.854 C 100.908 319.356,162.893 319.356,163.306 319.855 C 163.531 320.127,163.562 323.846,163.497 342.902 L 163.420 365.625 171.617 365.625 L 179.814 365.625 180.056 361.572 C 181.526 336.922,186.152 300.748,190.661 278.646 L 191.651 273.795 190.164 271.591 C 186.682 266.428,182.369 260.054,182.318 259.996 C 182.254 259.922,181.574 260.471,175.081 265.841 C 166.128 273.246,166.922 272.817,165.658 270.933 C 159.311 261.478,150.777 242.203,147.936 230.908 C 147.363 228.632,147.115 227.935,146.884 227.952 C 146.718 227.965,145.308 228.355,143.750 228.820 M320.236 257.227 C 315.143 271.158,309.950 290.617,307.621 304.492 C 304.445 323.414,302.998 352.329,304.604 364.795 L 304.711 365.625 326.356 365.625 L 348.001 365.625 347.729 364.209 C 347.146 361.177,345.742 349.620,345.125 342.773 C 344.486 335.669,344.262 333.376,343.736 328.516 C 340.198 295.848,334.192 274.206,325.415 262.504 C 323.813 260.367,320.370 256.859,320.236 257.227 M76.731 258.746 C 65.244 270.574,59.291 292.610,54.588 340.723 C 53.551 351.324,53.128 354.784,51.962 362.207 C 51.742 363.604,51.517 364.944,51.461 365.186 L 51.360 365.625 71.946 365.625 L 92.533 365.625 92.643 365.203 C 92.704 364.971,92.863 361.370,92.997 357.201 C 93.822 331.521,90.816 304.917,84.365 280.811 C 83.941 279.226,83.237 276.589,82.800 274.951 C 82.364 273.313,81.535 270.259,80.959 268.164 C 80.383 266.069,79.501 262.817,78.998 260.938 C 78.496 259.058,78.067 257.500,78.045 257.476 C 78.024 257.452,77.432 258.024,76.731 258.746 M258.734 301.489 C 258.972 301.553,259.387 301.979,259.654 302.436 C 260.691 304.204,263.922 304.302,264.352 302.578 C 264.670 301.304,264.145 301.367,274.401 301.367 C 285.686 301.367,285.312 301.263,283.995 304.048 C 281.460 309.407,276.981 312.312,270.752 312.638 C 269.543 312.702,268.555 312.819,268.555 312.899 C 268.555 312.978,268.153 313.490,267.663 314.035 C 264.536 317.513,258.192 317.153,255.851 313.365 C 255.450 312.716,255.398 312.695,254.197 312.695 C 248.483 312.695,243.897 310.168,240.688 305.253 C 239.302 303.131,239.133 302.662,239.531 302.054 L 239.850 301.567 248.587 301.514 C 253.393 301.485,257.544 301.441,257.813 301.417 C 258.081 301.392,258.496 301.425,258.734 301.489 M121.533 321.436 L 101.953 321.486 101.953 329.665 L 101.953 337.843 103.076 338.252 C 104.988 338.948,115.562 342.873,123.189 345.718 L 130.459 348.430 137.642 345.977 C 141.592 344.627,148.625 342.238,153.271 340.667 L 161.719 337.811 161.719 329.598 L 161.719 321.386 151.416 321.386 C 145.750 321.386,132.302 321.409,121.533 321.436 M231.838 329.582 L 231.839 337.793 247.566 343.101 L 263.292 348.409 271.246 345.516 C 279.196 342.624,287.365 339.678,290.774 338.474 L 292.582 337.836 292.531 329.611 L 292.480 321.387 262.158 321.379 L 231.836 321.372 231.838 329.582 M131.738 334.594 C 133.418 335.060,134.784 337.181,134.472 338.840 C 133.515 343.945,126.131 342.856,126.836 337.714 C 127.158 335.366,129.393 333.943,131.738 334.594 M264.082 334.597 C 265.924 335.214,266.884 336.651,266.760 338.605 C 266.463 343.265,259.811 343.372,259.068 338.729 C 258.649 336.104,261.519 333.739,264.082 334.597 M129.785 336.404 C 128.074 337.150,128.424 339.926,130.281 340.334 C 132.663 340.857,133.597 337.353,131.328 336.405 C 130.549 336.079,130.529 336.079,129.785 336.404 M262.185 336.324 C 260.916 336.837,260.537 338.612,261.475 339.652 C 263.070 341.422,265.808 339.547,264.779 337.389 C 264.313 336.412,263.150 335.934,262.185 336.324 M160.547 340.139 C 159.647 340.502,130.528 350.391,130.360 350.391 C 130.289 350.391,127.802 349.473,124.832 348.351 C 121.863 347.229,117.852 345.728,115.918 345.015 C 107.724 341.993,105.156 341.043,104.834 340.915 C 104.511 340.786,104.492 341.448,104.492 353.202 L 104.492 365.626 133.057 365.577 L 161.621 365.527 161.671 352.686 C 161.711 342.472,161.671 339.846,161.476 339.854 C 161.341 339.859,160.923 339.988,160.547 340.139 M231.866 352.711 L 231.800 365.577 261.115 365.595 L 290.430 365.613 290.430 353.098 C 290.430 341.258,290.411 340.591,290.088 340.719 C 289.900 340.794,288.428 341.325,286.816 341.899 C 278.223 344.959,273.072 346.816,268.945 348.341 C 266.421 349.274,264.113 350.126,263.816 350.234 C 263.519 350.342,263.124 350.368,262.937 350.291 C 262.750 350.214,258.862 348.893,254.297 347.355 C 249.731 345.818,242.885 343.498,239.083 342.202 C 235.281 340.905,232.117 339.844,232.051 339.844 C 231.986 339.844,231.902 345.634,231.866 352.711 " stroke="none" fill="#f2f2f2" fill-rule="evenodd"></path><path id="path2" d="M177.409 65.385 C 176.914 65.425,176.552 65.565,176.484 65.743 C 176.420 65.909,176.455 65.984,176.565 65.917 C 176.739 65.809,176.842 66.067,176.781 66.455 C 176.768 66.536,176.851 66.602,176.965 66.602 C 177.078 66.602,177.117 66.689,177.051 66.797 C 176.984 66.904,177.023 66.992,177.137 66.992 C 177.251 66.992,177.344 67.109,177.344 67.253 C 177.344 68.028,181.396 72.635,181.838 72.362 C 181.926 72.308,182.027 72.330,182.063 72.411 C 182.122 72.543,183.470 73.258,183.838 73.351 C 183.918 73.372,184.028 73.411,184.082 73.438 C 184.136 73.464,184.246 73.505,184.326 73.528 C 184.407 73.550,184.604 73.627,184.766 73.699 C 185.215 73.897,186.285 74.058,187.817 74.158 L 189.208 74.248 189.540 75.476 C 189.956 77.013,190.726 78.694,191.168 79.029 C 191.353 79.170,191.450 79.287,191.385 79.291 C 191.319 79.294,191.714 79.760,192.263 80.326 C 192.812 80.892,193.328 81.325,193.410 81.290 C 193.491 81.254,193.610 81.362,193.674 81.529 C 193.738 81.697,193.870 81.785,193.966 81.726 C 194.062 81.666,194.141 81.700,194.141 81.801 C 194.141 81.957,195.099 82.458,195.557 82.542 C 195.637 82.556,195.769 82.589,195.850 82.615 C 195.930 82.641,196.084 82.683,196.191 82.708 C 196.299 82.733,196.431 82.778,196.484 82.808 C 197.148 83.179,199.920 83.246,201.203 82.921 C 203.424 82.358,206.641 80.263,206.641 79.379 C 206.641 79.226,206.729 79.102,206.836 79.102 C 206.943 79.102,207.031 78.970,207.031 78.809 C 207.031 78.647,207.110 78.516,207.205 78.516 C 207.435 78.516,207.981 77.164,208.388 75.586 L 208.715 74.316 210.461 74.192 C 212.238 74.065,215.186 73.240,215.473 72.789 C 215.553 72.662,215.620 72.629,215.622 72.714 C 215.641 73.681,220.898 68.044,220.898 67.057 C 220.898 66.914,220.992 66.797,221.105 66.797 C 221.219 66.797,221.258 66.709,221.191 66.602 C 221.125 66.494,221.169 66.406,221.289 66.406 C 221.409 66.406,221.458 66.326,221.397 66.228 C 221.336 66.129,221.372 66.020,221.477 65.983 C 223.045 65.443,208.223 64.858,205.802 65.364 C 205.502 65.427,205.294 65.515,205.338 65.560 C 205.423 65.645,205.017 66.154,203.467 67.903 C 202.354 69.159,202.367 68.977,203.301 70.197 C 205.786 73.440,205.085 77.544,201.730 79.400 C 199.919 80.402,196.735 80.126,195.461 78.857 C 195.272 78.669,195.024 78.516,194.910 78.516 C 194.797 78.516,194.756 78.431,194.820 78.327 C 194.884 78.223,194.758 78.026,194.539 77.889 C 194.320 77.752,194.141 77.530,194.141 77.394 C 194.141 77.259,194.038 77.148,193.913 77.148 C 193.787 77.148,193.740 77.093,193.807 77.026 C 193.875 76.959,193.784 76.629,193.605 76.294 C 192.734 74.656,193.441 71.108,194.883 69.882 C 195.620 69.255,195.564 69.066,194.244 67.706 C 193.603 67.045,193.076 66.435,193.072 66.350 C 193.069 66.266,192.949 66.124,192.806 66.035 C 192.662 65.947,192.574 65.796,192.610 65.701 C 192.751 65.328,181.132 65.087,177.409 65.385 M189.844 89.659 C 188.608 89.754,186.543 89.966,185.254 90.130 C 183.965 90.293,182.473 90.470,181.940 90.524 C 176.669 91.051,158.664 95.630,157.813 96.659 C 157.759 96.724,157.566 96.802,157.383 96.832 C 155.325 97.174,143.395 103.259,142.432 104.458 C 142.155 104.802,142.081 110.468,142.348 110.887 C 142.525 111.167,142.772 111.053,145.783 109.301 C 170.135 95.134,208.512 92.392,238.135 102.704 C 239.075 103.031,239.845 103.238,239.847 103.163 C 239.848 103.088,239.914 103.117,239.993 103.227 C 240.072 103.337,240.928 103.722,241.895 104.082 C 242.861 104.442,244.679 105.201,245.934 105.767 C 247.189 106.334,248.265 106.748,248.326 106.687 C 248.387 106.626,248.438 106.683,248.438 106.815 C 248.438 106.947,248.525 107.000,248.633 106.934 C 248.740 106.867,248.828 106.911,248.828 107.031 C 248.828 107.151,248.909 107.200,249.007 107.139 C 249.105 107.078,249.215 107.111,249.251 107.211 C 249.287 107.311,249.448 107.421,249.609 107.456 C 249.771 107.491,249.947 107.578,250.002 107.650 C 250.057 107.722,250.229 107.810,250.385 107.846 C 250.541 107.881,250.760 107.980,250.871 108.066 C 251.444 108.506,255.382 110.742,255.583 110.742 C 256.028 110.742,256.306 106.078,255.938 104.785 C 255.831 104.409,253.180 102.588,252.881 102.686 C 252.800 102.713,252.734 102.646,252.734 102.539 C 252.734 102.432,252.610 102.344,252.458 102.344 C 252.306 102.344,252.152 102.271,252.116 102.183 C 251.957 101.790,243.344 97.583,242.285 97.382 C 242.178 97.361,241.899 97.239,241.665 97.111 C 241.432 96.982,241.080 96.850,240.884 96.818 C 240.688 96.785,240.330 96.650,240.088 96.517 C 239.846 96.384,239.648 96.333,239.648 96.404 C 239.648 96.474,239.517 96.423,239.355 96.289 C 239.194 96.155,239.063 96.111,239.063 96.191 C 239.063 96.271,238.931 96.227,238.770 96.094 C 238.608 95.960,238.477 95.916,238.477 95.996 C 238.477 96.076,238.367 96.052,238.232 95.942 C 238.016 95.765,234.324 94.548,233.727 94.458 C 233.600 94.438,233.407 94.367,233.299 94.299 C 233.074 94.158,230.764 93.527,230.176 93.446 C 229.961 93.416,229.741 93.374,229.688 93.353 C 229.634 93.332,229.502 93.294,229.395 93.269 C 229.287 93.244,229.155 93.203,229.102 93.179 C 229.048 93.154,228.872 93.102,228.711 93.063 C 228.550 93.024,228.242 92.942,228.027 92.882 C 227.020 92.598,221.494 91.403,220.801 91.319 C 220.371 91.267,219.630 91.143,219.154 91.042 C 218.678 90.942,218.171 90.905,218.028 90.960 C 217.885 91.014,217.652 90.963,217.510 90.844 C 217.367 90.726,216.687 90.583,215.998 90.526 C 215.310 90.469,213.296 90.250,211.523 90.040 C 207.809 89.599,193.791 89.353,189.844 89.659 M118.328 230.297 C 117.828 230.488,117.081 230.794,116.668 230.977 C 116.256 231.160,115.852 231.297,115.771 231.280 C 115.516 231.227,116.107 233.198,118.986 241.992 C 120.648 247.066,120.340 246.705,122.312 245.895 C 124.570 244.969,124.522 245.150,123.399 241.818 C 122.871 240.253,121.869 237.169,121.173 234.965 C 120.477 232.761,119.853 230.825,119.786 230.664 C 119.719 230.503,119.676 230.314,119.689 230.243 C 119.746 229.950,119.181 229.972,118.328 230.297 M280.029 230.350 C 279.841 230.493,279.687 230.688,279.687 230.783 C 279.686 230.879,278.649 234.084,277.383 237.906 C 275.815 242.638,275.145 244.914,275.284 245.039 C 275.396 245.141,276.235 245.538,277.148 245.923 L 278.809 246.622 281.267 239.278 C 283.354 233.044,283.964 230.815,283.440 231.338 C 283.383 231.395,283.241 231.364,283.123 231.268 C 282.961 231.135,280.461 230.054,280.386 230.084 C 280.378 230.088,280.217 230.207,280.029 230.350 M110.645 233.274 C 110.107 233.495,109.547 233.794,109.399 233.939 C 109.251 234.084,109.004 234.154,108.851 234.096 C 108.697 234.036,108.627 234.075,108.693 234.182 C 108.758 234.288,108.732 234.375,108.634 234.375 C 108.317 234.375,112.959 249.000,113.359 249.262 C 113.708 249.490,114.531 249.243,116.525 248.312 L 117.132 248.029 115.630 243.399 C 114.805 240.853,113.747 237.524,113.280 236.002 C 112.289 232.771,112.170 232.648,110.645 233.274 M287.247 233.138 C 287.302 233.281,287.235 233.398,287.098 233.398 C 286.961 233.398,286.907 233.456,286.977 233.527 C 287.048 233.598,287.031 233.751,286.939 233.869 C 286.544 234.372,282.134 248.258,282.385 248.206 C 282.459 248.191,282.959 248.377,283.496 248.620 C 284.033 248.864,284.561 249.078,284.668 249.097 C 284.775 249.116,284.973 249.201,285.107 249.284 C 285.917 249.790,286.024 249.652,286.962 246.905 C 288.182 243.329,290.286 236.681,290.293 236.377 C 290.297 236.243,290.382 236.133,290.483 236.133 C 290.584 236.133,290.616 236.001,290.554 235.840 C 290.493 235.679,290.524 235.547,290.625 235.547 C 290.726 235.547,290.757 235.415,290.696 235.254 C 290.634 235.093,290.668 234.961,290.772 234.961 C 290.876 234.961,290.921 234.747,290.871 234.487 C 290.812 234.180,290.684 234.049,290.507 234.117 C 290.357 234.174,290.234 234.119,290.234 233.994 C 290.234 233.868,290.153 233.817,290.053 233.878 C 289.953 233.940,289.815 233.900,289.746 233.789 C 289.678 233.678,289.540 233.638,289.440 233.700 C 289.340 233.762,289.258 233.722,289.258 233.611 C 289.258 233.501,289.126 233.461,288.965 233.523 C 288.804 233.585,288.672 233.533,288.672 233.408 C 288.672 233.283,288.584 233.234,288.477 233.301 C 288.369 233.367,288.281 233.337,288.281 233.233 C 288.281 233.129,288.092 233.094,287.860 233.155 C 287.607 233.221,287.487 233.187,287.559 233.071 C 287.624 232.965,287.559 232.878,287.412 232.878 C 287.266 232.878,287.192 232.995,287.247 233.138 M104.604 235.695 C 104.525 235.775,104.401 235.841,104.329 235.842 C 103.708 235.851,101.186 237.048,101.256 237.301 C 101.696 238.898,105.768 251.754,105.927 252.051 C 106.043 252.266,106.120 252.505,106.098 252.582 C 106.056 252.733,106.180 252.689,108.301 251.806 C 109.663 251.239,109.983 250.814,109.591 250.098 C 109.532 249.990,109.469 249.809,109.452 249.696 C 109.435 249.582,108.487 246.549,107.347 242.957 C 106.207 239.364,105.273 236.325,105.273 236.205 C 105.273 235.897,104.779 235.520,104.604 235.695 M294.482 236.089 C 293.762 236.905,289.260 251.429,289.789 251.226 C 289.927 251.173,290.039 251.233,290.039 251.358 C 290.039 251.483,290.119 251.536,290.218 251.475 C 290.316 251.414,290.426 251.432,290.462 251.514 C 290.574 251.769,292.915 252.693,293.120 252.564 C 293.292 252.456,296.820 241.967,296.938 241.214 C 296.963 241.051,297.036 240.830,297.099 240.723 C 297.193 240.563,297.524 239.565,298.154 237.549 C 298.238 237.279,297.562 236.770,296.966 236.655 C 296.634 236.591,295.252 236.035,294.899 235.823 C 294.833 235.784,294.645 235.903,294.482 236.089 M97.168 238.611 C 96.502 238.764,94.645 239.473,94.418 239.661 C 94.299 239.760,94.151 239.789,94.089 239.727 C 93.798 239.436,94.824 243.216,95.446 244.727 C 95.513 244.888,95.592 245.151,95.622 245.313 C 96.119 247.929,98.963 255.469,99.453 255.469 C 99.754 255.469,100.000 255.381,100.000 255.273 C 100.000 255.166,100.066 255.099,100.146 255.125 C 100.331 255.184,102.167 254.499,102.480 254.254 C 102.644 254.126,102.658 253.925,102.527 253.581 C 102.424 253.311,101.635 250.835,100.773 248.078 C 99.911 245.322,99.150 242.935,99.082 242.773 C 99.015 242.612,98.941 242.415,98.918 242.334 C 98.896 242.253,98.855 242.144,98.828 242.090 C 98.801 242.036,98.757 241.904,98.730 241.797 C 98.704 241.689,98.663 241.580,98.641 241.553 C 98.619 241.526,98.578 241.328,98.550 241.113 C 98.469 240.488,97.791 238.474,97.669 238.499 C 97.608 238.512,97.383 238.562,97.168 238.611 M302.100 238.826 C 301.912 238.864,301.758 238.982,301.758 239.088 C 301.758 239.194,301.656 239.218,301.532 239.142 C 301.386 239.051,301.360 239.088,301.460 239.249 C 301.544 239.386,301.533 239.553,301.436 239.621 C 301.338 239.690,301.107 240.229,300.921 240.820 C 300.736 241.411,299.672 244.681,298.559 248.087 C 297.445 251.494,296.589 254.270,296.656 254.257 C 296.723 254.244,297.393 254.522,298.145 254.874 C 300.551 256.004,300.107 256.622,302.840 248.340 C 304.152 244.365,305.288 240.963,305.365 240.779 C 305.540 240.360,304.723 239.554,304.073 239.505 C 303.824 239.486,303.590 239.384,303.555 239.277 C 303.519 239.171,303.376 239.129,303.235 239.182 C 303.095 239.236,302.859 239.162,302.711 239.018 C 302.563 238.874,302.288 238.788,302.100 238.826 M89.430 241.605 C 88.934 241.803,88.187 242.117,87.770 242.302 C 87.353 242.487,86.963 242.631,86.904 242.621 C 86.845 242.612,86.690 242.774,86.561 242.982 C 86.431 243.189,86.395 243.359,86.480 243.359 C 86.566 243.359,86.648 243.519,86.662 243.714 C 86.686 244.025,88.246 249.139,90.566 256.510 C 91.400 259.158,91.265 259.084,93.457 258.086 C 94.102 257.792,94.747 257.529,94.891 257.501 C 95.259 257.431,95.309 257.355,95.333 256.820 C 95.349 256.444,92.919 248.243,92.443 247.070 C 92.377 246.909,92.301 246.665,92.272 246.528 C 92.079 245.594,90.745 241.657,90.560 241.472 C 90.387 241.300,90.116 241.332,89.430 241.605 M308.942 241.785 C 308.433 242.380,303.387 257.811,303.855 257.343 C 303.917 257.281,304.064 257.307,304.181 257.401 C 304.496 257.652,307.815 259.049,307.890 258.962 C 307.963 258.876,310.557 251.092,310.633 250.727 C 310.661 250.596,310.740 250.356,310.810 250.195 C 311.249 249.182,312.891 243.977,312.891 243.597 C 312.891 243.063,312.508 242.608,312.156 242.725 C 312.023 242.770,311.914 242.696,311.914 242.562 C 311.914 242.428,311.856 242.376,311.786 242.446 C 311.715 242.517,311.539 242.477,311.395 242.357 C 311.251 242.238,311.133 242.197,311.133 242.268 C 311.133 242.339,310.935 242.288,310.693 242.155 C 310.452 242.022,310.082 241.885,309.872 241.850 C 309.662 241.816,309.438 241.703,309.375 241.601 C 309.311 241.498,309.117 241.581,308.942 241.785 M242.530 304.004 C 242.582 304.272,242.965 304.833,243.382 305.250 C 243.799 305.667,244.141 306.090,244.141 306.189 C 244.141 306.446,245.384 307.617,245.657 307.617 C 245.782 307.617,245.976 307.789,246.088 307.998 C 246.710 309.158,250.522 310.352,254.062 310.494 L 256.659 310.598 257.031 311.328 C 258.321 313.856,261.177 314.923,264.076 313.960 C 265.143 313.606,266.992 312.024,266.992 311.465 C 266.992 310.801,267.641 310.598,270.117 310.485 C 273.520 310.331,276.562 309.440,277.873 308.216 C 278.110 307.994,278.378 307.813,278.468 307.813 C 278.658 307.813,280.078 306.393,280.078 306.203 C 280.078 306.132,280.309 305.829,280.590 305.528 C 280.872 305.227,281.188 304.739,281.293 304.443 C 281.398 304.148,281.585 303.905,281.709 303.903 C 281.833 303.902,281.803 303.816,281.641 303.711 C 281.257 303.463,266.211 303.448,266.211 303.696 C 266.211 304.052,265.171 305.103,264.457 305.467 C 262.489 306.471,260.087 306.068,258.544 304.475 L 257.616 303.516 250.026 303.516 L 242.437 303.516 242.530 304.004 " stroke="none" fill="#f0bb49" fill-rule="evenodd"></path><path id="path3" d="M196.431 32.172 C 196.778 32.215,197.393 32.216,197.798 32.174 C 198.204 32.132,197.920 32.096,197.168 32.095 C 196.416 32.094,196.084 32.129,196.431 32.172 M199.658 32.174 C 200.061 32.216,200.720 32.216,201.123 32.174 C 201.526 32.131,201.196 32.097,200.391 32.097 C 199.585 32.097,199.255 32.131,199.658 32.174 M262.012 57.227 C 262.431 57.656,262.819 58.008,262.872 58.008 C 262.926 58.008,262.627 57.656,262.207 57.227 C 261.787 56.797,261.400 56.445,261.347 56.445 C 261.293 56.445,261.592 56.797,262.012 57.227 M265.137 60.352 C 265.556 60.781,265.944 61.133,265.997 61.133 C 266.051 61.133,265.752 60.781,265.332 60.352 C 264.912 59.922,264.525 59.570,264.472 59.570 C 264.418 59.570,264.717 59.922,265.137 60.352 M220.605 65.250 L 219.434 65.364 220.459 65.397 C 221.128 65.418,221.486 65.515,221.490 65.674 C 221.494 65.808,221.590 65.758,221.704 65.562 C 221.967 65.109,221.993 65.116,220.605 65.250 M176.465 65.820 C 176.631 66.143,176.813 66.406,176.867 66.406 C 176.922 66.406,176.876 66.236,176.765 66.028 C 176.469 65.476,176.486 65.459,177.393 65.377 C 178.182 65.306,178.172 65.301,177.192 65.268 L 176.162 65.234 176.465 65.820 M191.455 65.369 C 191.643 65.418,191.951 65.418,192.139 65.369 C 192.327 65.320,192.173 65.280,191.797 65.280 C 191.421 65.280,191.267 65.320,191.455 65.369 M202.378 69.002 C 202.221 69.191,202.277 69.322,202.598 69.522 C 202.986 69.764,203.002 69.759,202.766 69.474 C 202.623 69.300,202.562 69.066,202.631 68.954 C 202.810 68.666,202.628 68.700,202.378 69.002 M192.179 80.322 C 192.658 80.833,193.076 81.250,193.107 81.250 C 193.254 81.250,193.099 81.075,192.236 80.265 L 191.309 79.395 192.179 80.322 M121.338 84.473 C 121.340 84.902,121.380 85.055,121.427 84.812 C 121.474 84.569,121.472 84.218,121.423 84.031 C 121.374 83.844,121.336 84.043,121.338 84.473 M121.348 86.328 C 121.348 86.919,121.384 87.161,121.429 86.865 C 121.474 86.570,121.474 86.086,121.429 85.791 C 121.384 85.496,121.348 85.737,121.348 86.328 M202.493 89.591 C 202.735 89.638,203.087 89.636,203.274 89.587 C 203.460 89.538,203.262 89.500,202.832 89.502 C 202.402 89.505,202.250 89.545,202.493 89.591 M255.712 110.645 C 255.512 110.872,255.534 110.959,255.830 111.117 C 256.145 111.286,256.181 111.248,256.101 110.831 C 256.050 110.567,255.997 110.355,255.983 110.359 C 255.969 110.363,255.847 110.492,255.712 110.645 M159.914 122.939 C 159.565 123.374,158.510 124.589,157.571 125.638 C 153.699 129.962,153.269 134.840,155.577 148.220 C 156.126 151.399,154.498 153.516,151.505 153.516 C 150.204 153.516,149.894 152.458,147.930 141.309 C 147.365 138.102,147.248 137.881,145.897 137.476 C 141.751 136.234,140.039 144.899,142.766 153.320 C 144.949 160.064,150.443 167.503,153.546 167.919 C 154.584 168.059,154.716 168.316,155.464 171.680 C 158.522 185.426,162.116 192.307,170.836 201.111 C 181.157 211.531,189.436 215.077,201.529 214.255 C 212.281 213.525,217.888 210.709,227.151 201.391 C 235.864 192.625,239.493 185.754,242.583 172.175 C 243.457 168.335,243.495 168.249,244.398 168.058 C 250.423 166.786,257.776 151.850,256.660 143.150 C 255.846 136.804,251.277 134.986,250.314 140.625 C 248.918 148.793,248.058 152.839,247.644 153.174 C 246.696 153.942,244.494 153.453,243.323 152.215 C 242.178 151.004,242.165 150.618,243.063 144.386 C 245.010 130.879,244.538 129.090,237.590 123.652 L 236.242 122.596 233.831 122.930 C 230.446 123.399,224.899 123.956,219.629 124.356 C 213.885 124.793,187.829 124.863,182.129 124.457 C 174.015 123.879,166.283 123.099,162.597 122.487 L 160.550 122.147 159.914 122.939 M180.496 138.117 C 183.622 139.054,184.825 143.380,182.662 145.907 C 179.926 149.104,174.581 147.548,174.091 143.412 C 173.668 139.838,177.012 137.073,180.496 138.117 M221.398 138.354 C 224.382 139.744,225.205 143.732,222.988 146.069 C 219.960 149.261,214.600 147.225,214.600 142.883 C 214.600 139.210,218.153 136.843,221.398 138.354 M258.848 144.727 C 258.848 145.317,258.884 145.559,258.929 145.264 C 258.974 144.968,258.974 144.485,258.929 144.189 C 258.884 143.894,258.848 144.136,258.848 144.727 M139.121 145.117 C 139.121 145.708,139.158 145.950,139.202 145.654 C 139.247 145.359,139.247 144.875,139.202 144.580 C 139.158 144.285,139.121 144.526,139.121 145.117 M249.794 166.943 L 249.121 167.676 249.854 167.003 C 250.535 166.376,250.676 166.211,250.527 166.211 C 250.494 166.211,250.164 166.541,249.794 166.943 M185.362 181.956 C 192.410 187.311,205.206 187.351,212.988 182.043 C 213.644 181.595,214.451 181.521,214.805 181.875 C 216.905 183.976,206.351 188.329,199.121 188.344 C 192.998 188.356,183.420 184.817,183.401 182.535 C 183.393 181.484,184.364 181.198,185.362 181.956 M165.820 205.641 L 165.820 212.241 172.595 218.767 C 178.271 224.234,188.548 234.008,196.950 241.930 L 198.880 243.750 200.274 242.432 C 201.040 241.707,204.124 238.828,207.126 236.035 C 212.739 230.813,213.648 229.947,225.352 218.667 L 232.227 212.041 232.227 205.623 L 232.227 199.204 231.022 200.530 C 221.264 211.269,212.831 215.830,201.743 216.367 C 188.134 217.027,179.861 213.398,168.506 201.787 L 165.820 199.041 165.820 205.641 M160.442 211.182 L 159.473 212.207 160.498 211.238 C 161.451 210.337,161.613 210.156,161.467 210.156 C 161.436 210.156,160.975 210.618,160.442 211.182 M234.268 212.939 L 233.496 213.770 234.326 212.997 C 235.098 212.279,235.246 212.109,235.098 212.109 C 235.066 212.109,234.693 212.483,234.268 212.939 M239.648 213.574 C 240.013 213.950,240.355 214.258,240.409 214.258 C 240.462 214.258,240.208 213.950,239.844 213.574 C 239.479 213.198,239.137 212.891,239.084 212.891 C 239.030 212.891,239.284 213.198,239.648 213.574 M157.607 214.209 L 156.934 214.941 157.666 214.268 C 158.348 213.642,158.488 213.477,158.339 213.477 C 158.306 213.477,157.977 213.806,157.607 214.209 M168.359 217.676 C 168.724 218.052,169.066 218.359,169.120 218.359 C 169.173 218.359,168.919 218.052,168.555 217.676 C 168.190 217.300,167.848 216.992,167.794 216.992 C 167.741 216.992,167.995 217.300,168.359 217.676 M228.997 218.018 L 228.027 219.043 229.053 218.074 C 229.617 217.541,230.078 217.079,230.078 217.048 C 230.078 216.903,229.897 217.065,228.997 218.018 M245.703 220.178 C 245.703 220.212,245.989 220.498,246.338 220.813 L 246.973 221.387 246.399 220.752 C 245.864 220.160,245.703 220.027,245.703 220.178 M172.754 221.875 C 173.392 222.520,173.957 223.047,174.011 223.047 C 174.065 223.047,173.587 222.520,172.949 221.875 C 172.311 221.230,171.746 220.703,171.692 220.703 C 171.638 220.703,172.116 221.230,172.754 221.875 M223.913 222.900 L 223.340 223.535 223.975 222.962 C 224.566 222.427,224.699 222.266,224.548 222.266 C 224.515 222.266,224.229 222.551,223.913 222.900 M219.815 226.807 L 219.043 227.637 219.873 226.865 C 220.645 226.147,220.793 225.977,220.645 225.977 C 220.613 225.977,220.240 226.350,219.815 226.807 M180.859 229.553 C 180.859 229.587,181.145 229.873,181.494 230.188 L 182.129 230.762 181.555 230.127 C 181.021 229.535,180.859 229.402,180.859 229.553 M215.810 230.615 L 215.137 231.348 215.869 230.675 C 216.551 230.048,216.691 229.883,216.542 229.883 C 216.510 229.883,216.180 230.212,215.810 230.615 M287.188 233.039 C 287.123 233.144,287.123 233.282,287.187 233.346 C 287.252 233.411,287.305 233.369,287.305 233.254 C 287.305 233.139,287.480 233.090,287.695 233.147 C 287.910 233.203,288.086 233.205,288.086 233.151 C 288.086 232.953,287.301 232.855,287.188 233.039 M212.390 233.838 L 211.816 234.473 212.451 233.899 C 213.043 233.364,213.176 233.203,213.025 233.203 C 212.991 233.203,212.706 233.489,212.390 233.838 M185.938 234.473 C 186.521 235.063,187.042 235.547,187.096 235.547 C 187.150 235.547,186.716 235.063,186.133 234.473 C 185.549 233.882,185.028 233.398,184.974 233.398 C 184.921 233.398,185.354 233.882,185.938 234.473 M108.789 234.082 C 108.521 234.236,108.389 234.361,108.496 234.361 C 108.604 234.361,108.911 234.236,109.180 234.082 C 109.448 233.929,109.580 233.803,109.473 233.803 C 109.365 233.803,109.058 233.929,108.789 234.082 M189.640 237.939 C 190.450 238.802,190.625 238.957,190.625 238.810 C 190.625 238.779,190.208 238.361,189.697 237.882 L 188.770 237.012 189.640 237.939 M301.551 238.996 C 301.444 239.277,301.395 239.546,301.442 239.593 C 301.488 239.639,301.583 239.501,301.652 239.285 C 301.720 239.069,301.926 238.862,302.109 238.825 C 302.414 238.763,302.413 238.747,302.093 238.621 C 301.832 238.518,301.697 238.612,301.551 238.996 M312.646 242.903 C 312.781 242.957,312.897 243.192,312.904 243.424 C 312.918 243.832,312.924 243.834,313.073 243.457 C 313.226 243.071,313.008 242.766,312.598 242.792 C 312.490 242.799,312.512 242.849,312.646 242.903 M323.340 257.031 C 324.086 257.783,324.741 258.398,324.794 258.398 C 324.848 258.398,324.281 257.783,323.535 257.031 C 322.789 256.279,322.134 255.664,322.081 255.664 C 322.027 255.664,322.594 256.279,323.340 257.031 M76.846 258.447 L 76.074 259.277 76.904 258.505 C 77.676 257.787,77.824 257.617,77.676 257.617 C 77.644 257.617,77.271 257.991,76.846 258.447 M322.070 258.691 C 322.435 259.067,322.777 259.375,322.831 259.375 C 322.884 259.375,322.630 259.067,322.266 258.691 C 321.901 258.315,321.559 258.008,321.505 258.008 C 321.452 258.008,321.706 258.315,322.070 258.691 M257.571 301.505 C 257.814 301.552,258.165 301.550,258.352 301.501 C 258.539 301.452,258.340 301.414,257.910 301.416 C 257.480 301.419,257.328 301.459,257.571 301.505 M269.678 301.514 C 272.283 301.544,276.545 301.544,279.150 301.514 C 281.755 301.483,279.624 301.458,274.414 301.458 C 269.204 301.458,267.073 301.483,269.678 301.514 M229.973 329.492 C 229.973 334.595,229.998 336.682,230.029 334.131 C 230.060 331.580,230.060 327.405,230.029 324.854 C 229.998 322.302,229.973 324.390,229.973 329.492 M163.562 325.488 C 163.562 328.281,163.589 329.397,163.623 327.967 C 163.656 326.537,163.656 324.252,163.622 322.889 C 163.589 321.526,163.562 322.695,163.562 325.488 M101.844 321.541 C 101.791 321.679,101.774 323.239,101.807 325.007 L 101.866 328.223 101.909 324.854 L 101.953 321.486 121.533 321.436 L 141.113 321.385 121.527 321.337 C 105.693 321.298,101.922 321.337,101.844 321.541 M146.240 321.435 C 147.771 321.468,150.276 321.468,151.807 321.435 C 153.337 321.402,152.085 321.375,149.023 321.375 C 145.962 321.375,144.709 321.402,146.240 321.435 M159.326 321.427 C 159.568 321.473,159.963 321.473,160.205 321.427 C 160.447 321.380,160.249 321.342,159.766 321.342 C 159.282 321.342,159.084 321.380,159.326 321.427 M246.631 321.435 C 248.484 321.467,251.516 321.467,253.369 321.435 C 255.222 321.403,253.706 321.377,250.000 321.377 C 246.294 321.377,244.778 321.403,246.631 321.435 M258.643 321.431 C 259.045 321.473,259.705 321.473,260.107 321.431 C 260.510 321.389,260.181 321.355,259.375 321.355 C 258.569 321.355,258.240 321.389,258.643 321.431 M284.042 321.434 C 284.880 321.471,286.198 321.471,286.972 321.434 C 287.746 321.397,287.061 321.367,285.449 321.367 C 283.838 321.367,283.205 321.398,284.042 321.434 M290.381 321.427 C 290.623 321.473,291.018 321.473,291.260 321.427 C 291.501 321.380,291.304 321.342,290.820 321.342 C 290.337 321.342,290.139 321.380,290.381 321.427 M294.411 323.926 C 294.411 325.215,294.442 325.717,294.481 325.041 C 294.519 324.366,294.519 323.311,294.480 322.697 C 294.441 322.084,294.410 322.637,294.411 323.926 M161.805 332.031 C 161.805 335.308,161.832 336.648,161.865 335.010 C 161.898 333.372,161.898 330.691,161.865 329.053 C 161.832 327.415,161.805 328.755,161.805 332.031 M100.081 333.887 C 100.081 335.820,100.110 336.585,100.146 335.586 C 100.181 334.587,100.181 333.005,100.145 332.070 C 100.110 331.136,100.080 331.953,100.081 333.887 M94.772 333.594 C 94.772 333.970,94.812 334.124,94.861 333.936 C 94.910 333.748,94.910 333.440,94.861 333.252 C 94.812 333.064,94.772 333.218,94.772 333.594 M294.404 334.766 C 294.404 335.679,294.438 336.052,294.479 335.596 C 294.520 335.139,294.520 334.392,294.479 333.936 C 294.438 333.479,294.404 333.853,294.404 334.766 M304.346 333.887 C 304.348 334.316,304.388 334.469,304.435 334.226 C 304.482 333.983,304.480 333.632,304.431 333.445 C 304.382 333.258,304.344 333.457,304.346 333.887 M92.823 336.426 C 92.825 336.855,92.865 337.008,92.912 336.765 C 92.958 336.522,92.957 336.171,92.908 335.984 C 92.859 335.797,92.821 335.996,92.823 336.426 M294.385 337.207 C 294.387 337.637,294.427 337.790,294.474 337.547 C 294.521 337.304,294.519 336.952,294.470 336.765 C 294.421 336.579,294.383 336.777,294.385 337.207 M94.980 337.891 C 94.980 338.481,95.017 338.723,95.062 338.428 C 95.107 338.132,95.107 337.649,95.062 337.354 C 95.017 337.058,94.980 337.300,94.980 337.891 M304.157 338.184 C 304.159 338.721,304.197 338.917,304.242 338.620 C 304.287 338.323,304.285 337.884,304.239 337.644 C 304.193 337.404,304.156 337.646,304.157 338.184 M134.420 338.281 C 134.420 338.657,134.461 338.811,134.510 338.623 C 134.559 338.435,134.559 338.127,134.510 337.939 C 134.461 337.751,134.420 337.905,134.420 338.281 M302.014 340.137 C 302.015 340.781,302.051 341.021,302.095 340.670 C 302.138 340.319,302.137 339.792,302.093 339.498 C 302.048 339.205,302.013 339.492,302.014 340.137 M292.233 340.430 C 292.233 340.806,292.273 340.959,292.322 340.771 C 292.371 340.583,292.371 340.276,292.322 340.088 C 292.273 339.900,292.233 340.054,292.233 340.430 M290.508 343.457 C 290.508 345.068,290.538 345.702,290.575 344.864 C 290.612 344.027,290.612 342.708,290.575 341.934 C 290.538 341.161,290.508 341.846,290.508 343.457 M93.031 342.188 C 93.031 342.886,93.067 343.171,93.110 342.822 C 93.153 342.473,93.153 341.902,93.110 341.553 C 93.067 341.204,93.031 341.489,93.031 342.188 M231.908 342.969 C 231.908 344.097,231.940 344.558,231.980 343.994 C 232.019 343.430,232.019 342.507,231.980 341.943 C 231.940 341.379,231.908 341.841,231.908 342.969 M95.188 345.508 C 95.188 346.528,95.221 346.946,95.261 346.436 C 95.301 345.925,95.301 345.090,95.261 344.580 C 95.221 344.070,95.188 344.487,95.188 345.508 M303.989 348.047 C 303.989 350.249,304.017 351.150,304.052 350.049 C 304.087 348.948,304.087 347.146,304.052 346.045 C 304.017 344.944,303.989 345.845,303.989 348.047 M292.275 354.980 C 292.275 358.525,292.301 360.003,292.334 358.264 C 292.366 356.526,292.366 353.625,292.334 351.819 C 292.301 350.013,292.275 351.436,292.275 354.980 M95.187 353.613 C 95.186 354.580,95.219 355.000,95.260 354.547 C 95.301 354.094,95.301 353.303,95.261 352.789 C 95.221 352.276,95.187 352.646,95.187 353.613 M93.029 356.543 C 93.030 357.188,93.067 357.428,93.110 357.077 C 93.154 356.726,93.153 356.198,93.108 355.905 C 93.064 355.611,93.028 355.898,93.029 356.543 M302.006 356.250 C 302.006 356.733,302.044 356.931,302.091 356.689 C 302.138 356.448,302.138 356.052,302.091 355.811 C 302.044 355.569,302.006 355.767,302.006 356.250 M304.155 358.203 C 304.155 358.687,304.193 358.884,304.239 358.643 C 304.286 358.401,304.286 358.005,304.239 357.764 C 304.193 357.522,304.155 357.720,304.155 358.203 M94.978 360.449 C 94.979 360.986,95.017 361.183,95.062 360.886 C 95.107 360.589,95.106 360.150,95.059 359.909 C 95.013 359.669,94.976 359.912,94.978 360.449 M302.194 361.133 C 302.194 361.509,302.234 361.663,302.283 361.475 C 302.332 361.287,302.332 360.979,302.283 360.791 C 302.234 360.603,302.194 360.757,302.194 361.133 M92.819 361.719 C 92.819 362.095,92.859 362.249,92.908 362.061 C 92.957 361.873,92.957 361.565,92.908 361.377 C 92.859 361.189,92.819 361.343,92.819 361.719 M304.558 365.232 C 304.580 365.562,304.715 365.731,304.980 365.758 C 305.262 365.787,305.279 365.770,305.041 365.699 C 304.860 365.645,304.670 365.409,304.619 365.174 C 304.541 364.815,304.531 364.825,304.558 365.232 M252.305 365.575 C 253.412 365.610,255.170 365.610,256.212 365.575 C 257.253 365.540,256.348 365.512,254.199 365.512 C 252.051 365.512,251.199 365.541,252.305 365.575 " stroke="none" fill="#f3c3a5" fill-rule="evenodd"></path><path id="path4" d="M193.899 32.365 C 194.142 32.411,194.493 32.410,194.680 32.361 C 194.867 32.312,194.668 32.274,194.238 32.276 C 193.809 32.278,193.656 32.318,193.899 32.365 M203.174 32.361 C 203.362 32.410,203.669 32.410,203.857 32.361 C 204.045 32.312,203.892 32.272,203.516 32.272 C 203.140 32.272,202.986 32.312,203.174 32.361 M259.961 55.335 C 259.961 55.368,260.247 55.654,260.596 55.969 L 261.230 56.543 260.657 55.908 C 260.122 55.317,259.961 55.184,259.961 55.335 M135.737 57.568 L 134.473 58.887 135.791 57.623 C 136.516 56.928,137.109 56.334,137.109 56.304 C 137.109 56.161,136.910 56.344,135.737 57.568 M263.574 58.789 C 263.994 59.219,264.381 59.570,264.435 59.570 C 264.488 59.570,264.189 59.219,263.770 58.789 C 263.350 58.359,262.963 58.008,262.909 58.008 C 262.855 58.008,263.155 58.359,263.574 58.789 M133.093 60.205 L 132.520 60.840 133.154 60.266 C 133.503 59.951,133.789 59.665,133.789 59.631 C 133.789 59.481,133.628 59.613,133.093 60.205 M175.977 65.186 C 175.977 65.266,179.704 65.332,184.259 65.332 C 188.814 65.332,192.500 65.266,192.450 65.186 C 192.400 65.105,188.674 65.039,184.168 65.039 C 179.663 65.039,175.977 65.105,175.977 65.186 M205.401 65.186 C 205.319 65.319,211.348 65.316,218.555 65.179 C 220.112 65.150,217.810 65.106,213.439 65.082 C 209.068 65.058,205.451 65.105,205.401 65.186 M203.118 68.115 L 202.051 69.238 203.174 68.171 C 204.217 67.179,204.386 66.992,204.241 66.992 C 204.211 66.992,203.705 67.498,203.118 68.115 M194.141 67.639 C 194.141 67.673,194.426 67.958,194.775 68.274 L 195.410 68.848 194.837 68.213 C 194.302 67.621,194.141 67.488,194.141 67.639 M202.930 70.020 C 203.294 70.396,203.636 70.703,203.690 70.703 C 203.744 70.703,203.489 70.396,203.125 70.020 C 202.761 69.644,202.418 69.336,202.365 69.336 C 202.311 69.336,202.565 69.644,202.930 70.020 M179.785 70.898 C 180.314 71.436,180.791 71.875,180.845 71.875 C 180.898 71.875,180.510 71.436,179.980 70.898 C 179.451 70.361,178.975 69.922,178.921 69.922 C 178.867 69.922,179.256 70.361,179.785 70.898 M218.059 70.947 L 217.090 71.973 218.115 71.003 C 218.679 70.470,219.141 70.009,219.141 69.978 C 219.141 69.832,218.960 69.994,218.059 70.947 M193.223 74.023 C 193.223 74.614,193.259 74.856,193.304 74.561 C 193.349 74.265,193.349 73.782,193.304 73.486 C 193.259 73.191,193.223 73.433,193.223 74.023 M204.733 74.219 C 204.733 74.595,204.773 74.749,204.822 74.561 C 204.871 74.373,204.871 74.065,204.822 73.877 C 204.773 73.689,204.733 73.843,204.733 74.219 M187.942 74.359 C 188.239 74.404,188.678 74.403,188.919 74.356 C 189.159 74.310,188.916 74.273,188.379 74.275 C 187.842 74.276,187.645 74.314,187.942 74.359 M208.719 74.369 C 208.668 74.451,208.993 74.491,209.440 74.456 C 210.755 74.355,210.915 74.266,209.826 74.241 C 209.268 74.229,208.770 74.286,208.719 74.369 M192.090 80.469 C 192.509 80.898,192.897 81.250,192.950 81.250 C 193.004 81.250,192.705 80.898,192.285 80.469 C 191.866 80.039,191.478 79.688,191.425 79.688 C 191.371 79.688,191.670 80.039,192.090 80.469 M276.634 85.254 C 276.634 86.328,276.667 86.743,276.707 86.175 C 276.746 85.608,276.746 84.729,276.706 84.222 C 276.666 83.715,276.633 84.180,276.634 85.254 M196.642 89.404 C 197.964 89.438,200.074 89.438,201.330 89.404 C 202.586 89.370,201.504 89.342,198.926 89.342 C 196.348 89.342,195.320 89.370,196.642 89.404 M190.771 89.591 C 191.013 89.638,191.409 89.638,191.650 89.591 C 191.892 89.544,191.694 89.506,191.211 89.506 C 190.728 89.506,190.530 89.544,190.771 89.591 M205.911 89.593 C 206.208 89.638,206.647 89.637,206.887 89.591 C 207.128 89.544,206.885 89.508,206.348 89.509 C 205.811 89.510,205.614 89.548,205.911 89.593 M187.844 89.787 C 188.087 89.833,188.439 89.832,188.625 89.783 C 188.812 89.734,188.613 89.696,188.184 89.698 C 187.754 89.700,187.601 89.740,187.844 89.787 M208.838 89.783 C 209.026 89.832,209.333 89.832,209.521 89.783 C 209.709 89.734,209.556 89.694,209.180 89.694 C 208.804 89.694,208.650 89.734,208.838 89.783 M194.001 96.629 C 194.623 96.668,195.590 96.667,196.150 96.628 C 196.710 96.589,196.201 96.557,195.020 96.557 C 193.838 96.558,193.380 96.590,194.001 96.629 M201.717 96.629 C 202.392 96.667,203.447 96.667,204.060 96.628 C 204.674 96.590,204.121 96.559,202.832 96.559 C 201.543 96.559,201.041 96.591,201.717 96.629 M190.188 96.818 C 190.431 96.865,190.782 96.863,190.969 96.814 C 191.156 96.765,190.957 96.727,190.527 96.729 C 190.098 96.731,189.945 96.771,190.188 96.818 M207.180 96.818 C 207.423 96.865,207.775 96.863,207.961 96.814 C 208.148 96.765,207.949 96.727,207.520 96.729 C 207.090 96.731,206.937 96.771,207.180 96.818 M187.649 97.013 C 187.892 97.060,188.243 97.058,188.430 97.009 C 188.617 96.960,188.418 96.922,187.988 96.924 C 187.559 96.926,187.406 96.966,187.649 97.013 M209.719 97.013 C 209.962 97.060,210.314 97.058,210.500 97.009 C 210.687 96.960,210.488 96.922,210.059 96.924 C 209.629 96.926,209.476 96.966,209.719 97.013 M147.461 101.172 C 147.085 101.378,146.848 101.550,146.934 101.554 C 147.141 101.565,148.242 100.992,148.242 100.874 C 148.242 100.746,148.231 100.750,147.461 101.172 M267.671 105.518 L 266.309 106.934 267.725 105.572 C 269.040 104.307,269.230 104.102,269.087 104.102 C 269.057 104.102,268.420 104.739,267.671 105.518 M256.135 107.813 C 256.135 109.692,256.164 110.461,256.200 109.521 C 256.236 108.582,256.236 107.043,256.200 106.104 C 256.164 105.164,256.135 105.933,256.135 107.813 M142.062 106.543 C 142.061 107.510,142.094 107.930,142.135 107.477 C 142.176 107.023,142.176 106.232,142.136 105.719 C 142.096 105.205,142.062 105.576,142.062 106.543 M142.015 110.194 C 142.002 110.805,142.058 111.346,142.139 111.396 C 142.219 111.445,142.259 111.077,142.227 110.577 C 142.135 109.151,142.040 108.978,142.015 110.194 M257.693 112.779 C 257.634 112.932,257.619 113.262,257.659 113.511 C 257.713 113.845,257.758 113.771,257.831 113.232 C 257.933 112.474,257.879 112.295,257.693 112.779 M173.096 123.767 C 173.284 123.817,173.591 123.817,173.779 123.767 C 173.967 123.718,173.813 123.678,173.438 123.678 C 173.062 123.678,172.908 123.718,173.096 123.767 M158.484 124.463 L 157.910 125.098 158.545 124.524 C 159.137 123.989,159.269 123.828,159.119 123.828 C 159.085 123.828,158.799 124.114,158.484 124.463 M175.439 123.963 C 175.627 124.012,175.935 124.012,176.123 123.963 C 176.311 123.914,176.157 123.873,175.781 123.873 C 175.405 123.873,175.251 123.914,175.439 123.963 M177.883 124.162 C 178.126 124.208,178.478 124.207,178.664 124.158 C 178.851 124.109,178.652 124.071,178.223 124.073 C 177.793 124.075,177.640 124.115,177.883 124.162 M221.633 124.162 C 221.876 124.208,222.228 124.207,222.414 124.158 C 222.601 124.109,222.402 124.071,221.973 124.073 C 221.543 124.075,221.390 124.115,221.633 124.162 M180.813 124.357 C 181.056 124.404,181.407 124.402,181.594 124.353 C 181.781 124.304,181.582 124.266,181.152 124.268 C 180.723 124.270,180.570 124.310,180.813 124.357 M218.899 124.357 C 219.142 124.404,219.493 124.402,219.680 124.353 C 219.867 124.304,219.668 124.266,219.238 124.268 C 218.809 124.270,218.656 124.310,218.899 124.357 M184.134 124.556 C 184.485 124.599,185.013 124.598,185.306 124.554 C 185.600 124.509,185.313 124.473,184.668 124.475 C 184.023 124.476,183.783 124.512,184.134 124.556 M215.189 124.556 C 215.540 124.599,216.067 124.598,216.361 124.554 C 216.654 124.509,216.367 124.473,215.723 124.475 C 215.078 124.476,214.838 124.512,215.189 124.556 M188.721 124.753 C 189.231 124.793,190.066 124.793,190.576 124.753 C 191.086 124.713,190.669 124.680,189.648 124.680 C 188.628 124.680,188.210 124.713,188.721 124.753 M208.545 124.754 C 209.216 124.792,210.315 124.792,210.986 124.754 C 211.658 124.716,211.108 124.685,209.766 124.685 C 208.423 124.685,207.874 124.716,208.545 124.754 M156.921 126.221 L 156.348 126.855 156.982 126.282 C 157.332 125.966,157.617 125.681,157.617 125.647 C 157.617 125.496,157.456 125.629,156.921 126.221 M241.211 126.660 C 241.575 127.036,241.917 127.344,241.971 127.344 C 242.025 127.344,241.771 127.036,241.406 126.660 C 241.042 126.284,240.700 125.977,240.646 125.977 C 240.592 125.977,240.847 126.284,241.211 126.660 M154.160 133.594 C 154.160 134.185,154.197 134.426,154.241 134.131 C 154.286 133.835,154.286 133.352,154.241 133.057 C 154.197 132.761,154.160 133.003,154.160 133.594 M243.995 133.301 C 243.997 133.730,244.037 133.883,244.083 133.640 C 244.130 133.397,244.128 133.046,244.080 132.859 C 244.031 132.672,243.992 132.871,243.995 133.301 M244.004 136.523 C 244.004 137.114,244.040 137.356,244.085 137.061 C 244.130 136.765,244.130 136.282,244.085 135.986 C 244.040 135.691,244.004 135.933,244.004 136.523 M154.164 136.914 C 154.164 137.612,154.200 137.898,154.243 137.549 C 154.286 137.200,154.286 136.628,154.243 136.279 C 154.200 135.930,154.164 136.216,154.164 136.914 M256.055 136.816 C 256.419 137.192,256.761 137.500,256.815 137.500 C 256.869 137.500,256.614 137.192,256.250 136.816 C 255.886 136.440,255.543 136.133,255.490 136.133 C 255.436 136.133,255.690 136.440,256.055 136.816 M174.079 142.871 C 174.081 143.408,174.119 143.605,174.164 143.308 C 174.208 143.011,174.207 142.572,174.161 142.331 C 174.115 142.091,174.078 142.334,174.079 142.871 M141.278 144.824 C 141.279 145.684,141.313 146.011,141.354 145.551 C 141.395 145.092,141.395 144.389,141.353 143.989 C 141.311 143.589,141.277 143.965,141.278 144.824 M256.686 146.875 C 256.686 147.251,256.726 147.405,256.775 147.217 C 256.824 147.029,256.824 146.721,256.775 146.533 C 256.726 146.345,256.686 146.499,256.686 146.875 M149.023 164.746 C 149.388 165.122,149.730 165.430,149.784 165.430 C 149.837 165.430,149.583 165.122,149.219 164.746 C 148.854 164.370,148.512 164.063,148.459 164.063 C 148.405 164.063,148.659 164.370,149.023 164.746 M248.040 165.771 L 246.973 166.895 248.096 165.827 C 249.139 164.835,249.308 164.648,249.163 164.648 C 249.133 164.648,248.627 165.154,248.040 165.771 M148.234 166.846 C 148.713 167.356,149.130 167.773,149.162 167.773 C 149.308 167.773,149.153 167.598,148.291 166.789 L 147.363 165.918 148.234 166.846 M198.102 186.277 C 198.615 186.317,199.406 186.316,199.859 186.276 C 200.313 186.235,199.893 186.202,198.926 186.202 C 197.959 186.203,197.588 186.236,198.102 186.277 M198.389 188.423 C 198.738 188.466,199.309 188.466,199.658 188.423 C 200.007 188.379,199.722 188.344,199.023 188.344 C 198.325 188.344,198.040 188.379,198.389 188.423 M234.267 203.516 C 234.267 207.222,234.294 208.738,234.326 206.885 C 234.358 205.032,234.358 202.000,234.326 200.146 C 234.294 198.293,234.267 199.810,234.267 203.516 M168.262 198.633 C 168.900 199.277,169.465 199.805,169.519 199.805 C 169.573 199.805,169.095 199.277,168.457 198.633 C 167.819 197.988,167.253 197.461,167.200 197.461 C 167.146 197.461,167.624 197.988,168.262 198.633 M230.163 198.291 L 229.590 198.926 230.225 198.352 C 230.816 197.817,230.949 197.656,230.798 197.656 C 230.765 197.656,230.479 197.942,230.163 198.291 M165.671 205.475 L 165.625 212.219 166.846 213.385 L 168.066 214.551 166.946 213.376 L 165.826 212.201 165.771 205.466 L 165.717 198.730 165.671 205.475 M232.273 205.558 L 232.227 211.995 231.497 212.785 L 230.768 213.574 231.598 212.787 L 232.427 212.001 232.373 205.561 L 232.319 199.121 232.273 205.558 M231.140 200.244 L 230.566 200.879 231.201 200.305 C 231.793 199.771,231.926 199.609,231.775 199.609 C 231.741 199.609,231.456 199.895,231.140 200.244 M226.852 201.807 L 224.902 203.809 226.904 201.859 C 228.005 200.787,228.906 199.886,228.906 199.857 C 228.906 199.716,228.662 199.947,226.852 201.807 M170.117 200.647 C 170.117 200.681,170.403 200.966,170.752 201.282 L 171.387 201.855 170.813 201.221 C 170.278 200.629,170.117 200.496,170.117 200.647 M228.315 203.271 L 227.051 204.590 228.369 203.326 C 229.594 202.152,229.777 201.953,229.633 201.953 C 229.603 201.953,229.010 202.546,228.315 203.271 M173.633 204.004 C 173.997 204.380,174.339 204.688,174.393 204.688 C 174.447 204.688,174.193 204.380,173.828 204.004 C 173.464 203.628,173.122 203.320,173.068 203.320 C 173.014 203.320,173.268 203.628,173.633 204.004 M171.387 204.688 C 171.806 205.117,172.194 205.469,172.247 205.469 C 172.301 205.469,172.002 205.117,171.582 204.688 C 171.162 204.258,170.775 203.906,170.722 203.906 C 170.668 203.906,170.967 204.258,171.387 204.688 M225.380 206.006 L 224.707 206.738 225.439 206.065 C 226.121 205.439,226.262 205.273,226.113 205.273 C 226.080 205.273,225.750 205.603,225.380 206.006 M163.746 208.008 C 163.746 209.243,163.777 209.749,163.816 209.131 C 163.855 208.513,163.855 207.502,163.816 206.885 C 163.777 206.267,163.746 206.772,163.746 208.008 M172.852 205.920 C 172.852 205.954,173.137 206.240,173.486 206.555 L 174.121 207.129 173.547 206.494 C 173.013 205.902,172.852 205.770,172.852 205.920 M158.874 212.939 L 158.301 213.574 158.936 213.001 C 159.285 212.685,159.570 212.399,159.570 212.366 C 159.570 212.215,159.409 212.348,158.874 212.939 M165.430 214.746 C 166.662 215.981,167.713 216.992,167.767 216.992 C 167.821 216.992,166.857 215.981,165.625 214.746 C 164.393 213.511,163.341 212.500,163.288 212.500 C 163.234 212.500,164.198 213.511,165.430 214.746 M160.156 214.355 C 159.682 214.839,159.338 215.234,159.391 215.234 C 159.445 215.234,159.877 214.839,160.352 214.355 C 160.826 213.872,161.170 213.477,161.116 213.477 C 161.063 213.477,160.631 213.872,160.156 214.355 M237.598 214.258 C 238.017 214.688,238.404 215.039,238.458 215.039 C 238.512 215.039,238.213 214.688,237.793 214.258 C 237.373 213.828,236.986 213.477,236.932 213.477 C 236.879 213.477,237.178 213.828,237.598 214.258 M231.636 215.381 L 229.980 217.090 231.689 215.434 C 232.629 214.523,233.398 213.754,233.398 213.725 C 233.398 213.583,233.174 213.794,231.636 215.381 M196.143 214.398 C 196.438 214.442,196.921 214.442,197.217 214.398 C 197.512 214.353,197.271 214.316,196.680 214.316 C 196.089 214.316,195.847 214.353,196.143 214.398 M200.345 214.399 C 200.696 214.443,201.224 214.442,201.517 214.397 C 201.811 214.353,201.523 214.317,200.879 214.318 C 200.234 214.319,199.994 214.356,200.345 214.399 M240.430 214.514 C 240.430 214.548,240.715 214.833,241.064 215.149 L 241.699 215.723 241.126 215.088 C 240.591 214.496,240.430 214.363,240.430 214.514 M156.044 215.967 L 155.371 216.699 156.104 216.026 C 156.785 215.400,156.926 215.234,156.777 215.234 C 156.744 215.234,156.414 215.564,156.044 215.967 M226.169 217.920 L 223.730 220.410 226.221 217.972 C 228.534 215.707,228.799 215.430,228.659 215.430 C 228.631 215.430,227.510 216.550,226.169 217.920 M170.898 217.285 C 171.807 218.198,172.594 218.945,172.648 218.945 C 172.701 218.945,172.002 218.198,171.094 217.285 C 170.185 216.372,169.398 215.625,169.345 215.625 C 169.291 215.625,169.990 216.372,170.898 217.285 M239.844 216.699 C 240.208 217.075,240.550 217.383,240.604 217.383 C 240.658 217.383,240.403 217.075,240.039 216.699 C 239.675 216.323,239.333 216.016,239.279 216.016 C 239.225 216.016,239.479 216.323,239.844 216.699 M195.166 216.346 C 195.354 216.395,195.662 216.395,195.850 216.346 C 196.038 216.296,195.884 216.256,195.508 216.256 C 195.132 216.256,194.978 216.296,195.166 216.346 M202.102 216.349 C 202.345 216.396,202.696 216.394,202.883 216.345 C 203.070 216.296,202.871 216.258,202.441 216.260 C 202.012 216.262,201.859 216.302,202.102 216.349 M242.961 217.236 C 243.770 218.099,243.945 218.254,243.945 218.107 C 243.945 218.076,243.528 217.658,243.018 217.179 L 242.090 216.309 242.961 217.236 M157.411 217.334 L 156.738 218.066 157.471 217.393 C 158.152 216.767,158.293 216.602,158.144 216.602 C 158.111 216.602,157.782 216.931,157.411 217.334 M153.505 218.701 L 152.832 219.434 153.564 218.761 C 154.246 218.134,154.387 217.969,154.238 217.969 C 154.205 217.969,153.875 218.298,153.505 218.701 M170.410 219.531 C 171.048 220.176,171.614 220.703,171.667 220.703 C 171.721 220.703,171.243 220.176,170.605 219.531 C 169.968 218.887,169.402 218.359,169.348 218.359 C 169.294 218.359,169.772 218.887,170.410 219.531 M155.263 219.678 L 154.590 220.410 155.322 219.737 C 156.004 219.111,156.144 218.945,155.995 218.945 C 155.963 218.945,155.633 219.275,155.263 219.678 M225.977 220.801 C 225.176 221.606,224.565 222.266,224.619 222.266 C 224.673 222.266,225.372 221.606,226.172 220.801 C 226.972 219.995,227.583 219.336,227.529 219.336 C 227.476 219.336,226.777 219.995,225.977 220.801 M175.879 222.070 C 176.841 223.037,177.673 223.828,177.726 223.828 C 177.780 223.828,177.037 223.037,176.074 222.070 C 175.112 221.104,174.281 220.313,174.227 220.313 C 174.173 220.313,174.917 221.104,175.879 222.070 M243.937 221.143 C 244.747 222.005,244.922 222.160,244.922 222.013 C 244.922 221.982,244.504 221.564,243.994 221.086 L 243.066 220.215 243.937 221.143 M152.823 222.314 L 152.051 223.145 152.881 222.372 C 153.653 221.654,153.801 221.484,153.653 221.484 C 153.621 221.484,153.247 221.858,152.823 222.314 M220.599 223.291 L 219.434 224.512 220.654 223.346 C 221.788 222.263,221.964 222.070,221.820 222.070 C 221.790 222.070,221.241 222.620,220.599 223.291 M245.703 223.108 C 245.703 223.142,245.989 223.427,246.338 223.743 L 246.973 224.316 246.399 223.682 C 245.864 223.090,245.703 222.957,245.703 223.108 M174.414 223.296 C 174.414 223.325,175.095 224.007,175.928 224.810 L 177.441 226.270 175.981 224.756 C 174.625 223.350,174.414 223.153,174.414 223.296 M221.673 224.951 L 220.605 226.074 221.729 225.007 C 222.772 224.015,222.941 223.828,222.796 223.828 C 222.766 223.828,222.260 224.333,221.673 224.951 M249.707 224.609 C 250.127 225.039,250.514 225.391,250.568 225.391 C 250.621 225.391,250.322 225.039,249.902 224.609 C 249.483 224.180,249.096 223.828,249.042 223.828 C 248.988 223.828,249.287 224.180,249.707 224.609 M150.476 224.854 L 149.902 225.488 150.537 224.915 C 150.886 224.599,151.172 224.313,151.172 224.280 C 151.172 224.129,151.011 224.262,150.476 224.854 M216.695 227.002 L 215.137 228.613 216.748 227.055 C 218.245 225.608,218.448 225.391,218.306 225.391 C 218.277 225.391,217.551 226.116,216.695 227.002 M248.267 225.879 C 248.549 226.201,248.827 226.597,248.886 226.758 C 248.978 227.010,248.995 227.008,249.008 226.746 C 249.016 226.578,248.738 226.182,248.389 225.867 L 247.754 225.293 248.267 225.879 M180.851 226.807 C 181.661 227.669,181.836 227.824,181.836 227.677 C 181.836 227.646,181.418 227.229,180.908 226.750 L 179.980 225.879 180.851 226.807 M179.492 228.223 C 180.184 228.921,180.794 229.492,180.848 229.492 C 180.902 229.492,180.380 228.921,179.688 228.223 C 178.995 227.524,178.385 226.953,178.332 226.953 C 178.278 226.953,178.800 227.524,179.492 228.223 M217.571 228.857 L 216.504 229.980 217.627 228.913 C 218.245 228.326,218.750 227.820,218.750 227.790 C 218.750 227.645,218.563 227.814,217.571 228.857 M266.786 229.053 L 266.113 229.785 266.846 229.112 C 267.249 228.742,267.578 228.412,267.578 228.380 C 267.578 228.231,267.413 228.371,266.786 229.053 M185.059 230.859 C 185.805 231.611,186.459 232.227,186.513 232.227 C 186.567 232.227,186.000 231.611,185.254 230.859 C 184.508 230.107,183.853 229.492,183.800 229.492 C 183.746 229.492,184.312 230.107,185.059 230.859 M212.006 231.494 L 210.840 232.715 212.061 231.549 C 213.194 230.466,213.371 230.273,213.226 230.273 C 213.196 230.273,212.647 230.823,212.006 231.494 M213.867 232.324 C 213.393 232.808,213.049 233.203,213.102 233.203 C 213.156 233.203,213.588 232.808,214.063 232.324 C 214.537 231.841,214.881 231.445,214.827 231.445 C 214.774 231.445,214.342 231.841,213.867 232.324 M184.082 232.617 C 184.502 233.047,184.889 233.398,184.943 233.398 C 184.996 233.398,184.697 233.047,184.277 232.617 C 183.858 232.188,183.471 231.836,183.417 231.836 C 183.363 231.836,183.662 232.188,184.082 232.617 M187.305 232.866 C 187.305 232.896,187.986 233.577,188.818 234.380 L 190.332 235.840 188.872 234.326 C 187.516 232.920,187.305 232.723,187.305 232.866 M208.984 234.277 C 208.510 234.761,208.166 235.156,208.219 235.156 C 208.273 235.156,208.705 234.761,209.180 234.277 C 209.654 233.794,209.998 233.398,209.945 233.398 C 209.891 233.398,209.459 233.794,208.984 234.277 M210.440 235.596 L 209.668 236.426 210.498 235.654 C 211.270 234.936,211.418 234.766,211.270 234.766 C 211.238 234.766,210.865 235.139,210.440 235.596 M135.596 235.840 C 135.598 236.270,135.638 236.422,135.685 236.179 C 135.732 235.936,135.730 235.585,135.681 235.398 C 135.632 235.211,135.594 235.410,135.596 235.840 M263.728 236.035 C 263.729 236.572,263.767 236.769,263.812 236.472 C 263.857 236.175,263.856 235.736,263.809 235.495 C 263.763 235.255,263.726 235.498,263.728 236.035 M188.086 236.426 C 188.450 236.802,188.792 237.109,188.846 237.109 C 188.900 237.109,188.646 236.802,188.281 236.426 C 187.917 236.050,187.575 235.742,187.521 235.742 C 187.467 235.742,187.722 236.050,188.086 236.426 M206.239 236.865 L 205.566 237.598 206.299 236.925 C 206.981 236.298,207.121 236.133,206.972 236.133 C 206.939 236.133,206.610 236.462,206.239 236.865 M192.383 237.793 C 193.075 238.491,193.685 239.063,193.739 239.063 C 193.792 239.063,193.270 238.491,192.578 237.793 C 191.886 237.095,191.276 236.523,191.222 236.523 C 191.169 236.523,191.691 237.095,192.383 237.793 M207.706 238.135 L 206.934 238.965 207.764 238.193 C 208.536 237.475,208.684 237.305,208.536 237.305 C 208.504 237.305,208.130 237.678,207.706 238.135 M203.604 239.307 L 202.832 240.137 203.662 239.365 C 204.434 238.647,204.582 238.477,204.434 238.477 C 204.402 238.477,204.029 238.850,203.604 239.307 M192.090 240.234 C 192.728 240.879,193.293 241.406,193.347 241.406 C 193.401 241.406,192.923 240.879,192.285 240.234 C 191.647 239.590,191.082 239.063,191.028 239.063 C 190.974 239.063,191.452 239.590,192.090 240.234 M195.703 240.918 C 196.287 241.509,196.808 241.992,196.862 241.992 C 196.915 241.992,196.482 241.509,195.898 240.918 C 195.315 240.327,194.794 239.844,194.740 239.844 C 194.686 239.844,195.120 240.327,195.703 240.918 M204.681 240.967 L 203.613 242.090 204.736 241.022 C 205.354 240.435,205.859 239.930,205.859 239.899 C 205.859 239.754,205.673 239.923,204.681 240.967 M200.286 242.432 L 199.316 243.457 200.342 242.488 C 200.906 241.955,201.367 241.493,201.367 241.462 C 201.367 241.317,201.186 241.479,200.286 242.432 M132.507 243.018 L 131.934 243.652 132.568 243.079 C 132.917 242.763,133.203 242.478,133.203 242.444 C 133.203 242.293,133.042 242.426,132.507 243.018 M195.500 243.408 C 196.309 244.271,196.484 244.426,196.484 244.279 C 196.484 244.248,196.067 243.830,195.557 243.351 L 194.629 242.480 195.500 243.408 M201.501 243.909 L 200.377 245.044 200.823 245.416 C 201.264 245.783,201.265 245.783,200.927 245.410 C 200.596 245.045,200.623 244.994,201.702 243.903 C 202.317 243.282,202.776 242.773,202.722 242.773 C 202.668 242.773,202.119 243.284,201.501 243.909 M113.089 249.354 C 113.084 249.722,113.442 249.846,113.817 249.605 C 114.132 249.402,114.130 249.394,113.785 249.504 C 113.573 249.571,113.341 249.514,113.251 249.372 C 113.138 249.193,113.091 249.188,113.089 249.354 M74.499 258.057 L 73.926 258.691 74.561 258.118 C 75.152 257.583,75.285 257.422,75.134 257.422 C 75.101 257.422,74.815 257.708,74.499 258.057 M313.757 261.377 L 313.184 262.012 313.818 261.438 C 314.410 260.903,314.543 260.742,314.392 260.742 C 314.358 260.742,314.073 261.028,313.757 261.377 M266.650 303.455 C 266.838 303.504,267.146 303.504,267.334 303.455 C 267.522 303.406,267.368 303.366,266.992 303.366 C 266.616 303.366,266.462 303.406,266.650 303.455 M269.678 303.465 C 270.457 303.502,271.731 303.502,272.510 303.465 C 273.289 303.428,272.651 303.398,271.094 303.398 C 269.536 303.398,268.899 303.428,269.678 303.465 M265.320 304.736 L 264.746 305.371 265.381 304.797 C 265.973 304.263,266.105 304.102,265.955 304.102 C 265.921 304.102,265.635 304.387,265.320 304.736 M261.670 305.997 C 261.912 306.044,262.307 306.044,262.549 305.997 C 262.791 305.951,262.593 305.913,262.109 305.913 C 261.626 305.913,261.428 305.951,261.670 305.997 M243.066 308.203 C 243.595 308.740,244.072 309.180,244.126 309.180 C 244.180 309.180,243.791 308.740,243.262 308.203 C 242.733 307.666,242.256 307.227,242.202 307.227 C 242.148 307.227,242.537 307.666,243.066 308.203 M280.853 308.350 L 279.785 309.473 280.908 308.405 C 281.526 307.818,282.031 307.313,282.031 307.282 C 282.031 307.137,281.844 307.306,280.853 308.350 M253.955 310.682 C 254.143 310.731,254.451 310.731,254.639 310.682 C 254.827 310.632,254.673 310.592,254.297 310.592 C 253.921 310.592,253.767 310.632,253.955 310.682 M268.316 310.690 C 268.775 310.731,269.478 310.731,269.878 310.689 C 270.278 310.647,269.902 310.613,269.043 310.614 C 268.184 310.615,267.856 310.649,268.316 310.690 M253.564 312.640 C 253.860 312.685,254.343 312.685,254.639 312.640 C 254.934 312.595,254.692 312.559,254.102 312.559 C 253.511 312.559,253.269 312.595,253.564 312.640 M269.385 312.642 C 269.788 312.684,270.447 312.684,270.850 312.642 C 271.252 312.600,270.923 312.566,270.117 312.566 C 269.312 312.566,268.982 312.600,269.385 312.642 M267.273 314.307 L 266.699 314.941 267.334 314.368 C 267.926 313.833,268.059 313.672,267.908 313.672 C 267.874 313.672,267.588 313.958,267.273 314.307 M261.478 314.399 C 261.829 314.443,262.356 314.442,262.650 314.397 C 262.943 314.353,262.656 314.317,262.012 314.318 C 261.367 314.319,261.127 314.356,261.478 314.399 M116.064 319.678 C 124.524 319.706,138.367 319.706,146.826 319.678 C 155.286 319.650,148.364 319.627,131.445 319.627 C 114.526 319.627,107.605 319.650,116.064 319.678 M233.740 319.677 C 234.734 319.712,236.360 319.712,237.354 319.677 C 238.347 319.641,237.534 319.612,235.547 319.612 C 233.560 319.612,232.747 319.641,233.740 319.677 M287.453 319.669 C 287.696 319.716,288.048 319.714,288.235 319.665 C 288.421 319.617,288.223 319.578,287.793 319.581 C 287.363 319.583,287.210 319.623,287.453 319.669 M291.064 319.671 C 291.360 319.716,291.843 319.716,292.139 319.671 C 292.434 319.626,292.192 319.590,291.602 319.590 C 291.011 319.590,290.769 319.626,291.064 319.671 M100.085 325.391 C 100.085 328.237,100.113 329.402,100.146 327.979 C 100.179 326.555,100.179 324.226,100.146 322.803 C 100.113 321.379,100.085 322.544,100.085 325.391 M161.795 323.730 C 161.795 325.127,161.826 325.673,161.864 324.943 C 161.901 324.213,161.901 323.071,161.863 322.404 C 161.825 321.737,161.794 322.334,161.795 323.730 M231.730 329.590 C 231.730 334.209,231.756 336.071,231.787 333.727 C 231.818 331.383,231.818 327.604,231.787 325.329 C 231.756 323.053,231.730 324.971,231.730 329.590 M292.637 322.266 C 292.637 322.856,292.673 323.098,292.718 322.803 C 292.763 322.507,292.763 322.024,292.718 321.729 C 292.673 321.433,292.637 321.675,292.637 322.266 M292.578 331.387 C 292.524 335.061,292.548 338.000,292.630 337.917 C 292.712 337.835,292.756 334.829,292.727 331.238 L 292.675 324.707 292.578 331.387 M304.733 325.977 C 304.733 326.353,304.773 326.506,304.822 326.318 C 304.871 326.130,304.871 325.823,304.822 325.635 C 304.773 325.447,304.733 325.601,304.733 325.977 M94.381 328.516 C 94.381 328.892,94.421 329.045,94.471 328.857 C 94.520 328.669,94.520 328.362,94.471 328.174 C 94.421 327.986,94.381 328.140,94.381 328.516 M92.428 328.711 C 92.428 329.087,92.468 329.241,92.517 329.053 C 92.567 328.865,92.567 328.557,92.517 328.369 C 92.468 328.181,92.428 328.335,92.428 328.711 M101.798 332.947 C 101.776 335.654,101.824 337.908,101.904 337.958 C 101.985 338.008,102.028 336.585,102.001 334.796 C 101.906 328.646,101.839 328.036,101.798 332.947 M304.538 328.906 C 304.538 329.282,304.578 329.436,304.627 329.248 C 304.676 329.060,304.676 328.752,304.627 328.564 C 304.578 328.376,304.538 328.530,304.538 328.906 M163.560 334.570 C 163.560 336.880,163.588 337.825,163.622 336.670 C 163.657 335.515,163.657 333.625,163.622 332.471 C 163.588 331.316,163.560 332.261,163.560 334.570 M94.577 331.445 C 94.577 331.821,94.617 331.975,94.666 331.787 C 94.715 331.599,94.715 331.292,94.666 331.104 C 94.617 330.916,94.577 331.069,94.577 331.445 M92.623 331.836 C 92.623 332.212,92.664 332.366,92.713 332.178 C 92.762 331.990,92.762 331.682,92.713 331.494 C 92.664 331.306,92.623 331.460,92.623 331.836 M302.393 332.129 C 302.395 332.559,302.435 332.711,302.482 332.468 C 302.529 332.225,302.527 331.874,302.478 331.687 C 302.429 331.500,302.391 331.699,302.393 332.129 M304.353 332.324 C 304.354 332.861,304.392 333.058,304.437 332.761 C 304.482 332.464,304.481 332.025,304.434 331.784 C 304.388 331.544,304.351 331.787,304.353 332.324 M94.780 334.961 C 94.780 335.444,94.818 335.642,94.864 335.400 C 94.911 335.159,94.911 334.763,94.864 334.521 C 94.818 334.280,94.780 334.478,94.780 334.961 M92.823 335.059 C 92.825 335.488,92.865 335.641,92.912 335.398 C 92.958 335.155,92.957 334.804,92.908 334.617 C 92.859 334.430,92.821 334.629,92.823 335.059 M302.207 336.133 C 302.207 336.724,302.244 336.965,302.288 336.670 C 302.333 336.375,302.333 335.891,302.288 335.596 C 302.244 335.300,302.207 335.542,302.207 336.133 M304.157 336.426 C 304.159 336.963,304.197 337.159,304.242 336.863 C 304.287 336.566,304.285 336.126,304.239 335.886 C 304.193 335.646,304.156 335.889,304.157 336.426 M126.803 338.281 C 126.803 338.657,126.843 338.811,126.892 338.623 C 126.942 338.435,126.942 338.127,126.892 337.939 C 126.843 337.751,126.803 337.905,126.803 338.281 M260.788 338.281 C 260.788 338.657,260.828 338.811,260.877 338.623 C 260.926 338.435,260.926 338.127,260.877 337.939 C 260.828 337.751,260.788 337.905,260.788 338.281 M93.031 339.844 C 93.031 340.542,93.067 340.828,93.110 340.479 C 93.153 340.129,93.153 339.558,93.110 339.209 C 93.067 338.860,93.031 339.146,93.031 339.844 M94.988 340.234 C 94.988 341.040,95.022 341.370,95.064 340.967 C 95.106 340.564,95.106 339.905,95.064 339.502 C 95.022 339.099,94.988 339.429,94.988 340.234 M163.377 352.344 L 163.379 365.723 171.582 365.726 L 179.785 365.729 171.632 365.675 L 163.479 365.621 163.427 352.293 L 163.375 338.965 163.377 352.344 M230.152 341.016 C 230.152 342.251,230.184 342.756,230.222 342.139 C 230.261 341.521,230.261 340.510,230.222 339.893 C 230.184 339.275,230.152 339.780,230.152 341.016 M303.978 342.285 C 303.978 343.359,304.011 343.774,304.050 343.206 C 304.090 342.639,304.090 341.760,304.050 341.253 C 304.009 340.747,303.977 341.211,303.978 342.285 M292.263 343.457 C 292.264 344.854,292.295 345.399,292.333 344.670 C 292.370 343.940,292.370 342.797,292.332 342.131 C 292.294 341.464,292.263 342.061,292.263 343.457 M302.028 343.457 C 302.028 344.746,302.060 345.248,302.098 344.572 C 302.136 343.897,302.136 342.842,302.097 342.229 C 302.059 341.615,302.027 342.168,302.028 343.457 M230.125 355.811 L 230.078 365.625 223.940 365.625 C 218.259 365.625,217.795 365.600,217.713 365.283 C 217.646 365.026,217.618 365.050,217.601 365.381 L 217.578 365.820 223.834 365.820 C 228.659 365.820,230.112 365.764,230.184 365.576 C 230.235 365.442,230.254 360.981,230.225 355.664 L 230.172 345.996 230.125 355.811 M290.517 352.539 C 290.517 356.030,290.543 357.458,290.576 355.713 C 290.608 353.967,290.608 351.111,290.576 349.365 C 290.543 347.620,290.517 349.048,290.517 352.539 M292.250 347.461 C 292.250 348.159,292.285 348.445,292.329 348.096 C 292.372 347.747,292.372 347.175,292.329 346.826 C 292.285 346.477,292.250 346.763,292.250 347.461 M95.192 349.609 C 95.192 350.952,95.224 351.501,95.262 350.830 C 95.300 350.159,95.300 349.060,95.262 348.389 C 95.224 347.717,95.192 348.267,95.192 349.609 M303.980 354.102 C 303.980 355.337,304.012 355.842,304.051 355.225 C 304.089 354.607,304.089 353.596,304.051 352.979 C 304.012 352.361,303.980 352.866,303.980 354.102 M302.022 353.809 C 302.022 354.775,302.055 355.196,302.096 354.742 C 302.137 354.289,302.137 353.498,302.097 352.984 C 302.057 352.471,302.023 352.842,302.022 353.809 M94.982 358.496 C 94.983 359.141,95.020 359.381,95.063 359.030 C 95.107 358.679,95.106 358.151,95.061 357.858 C 95.017 357.564,94.981 357.852,94.982 358.496 M93.027 358.594 C 93.027 359.185,93.064 359.426,93.109 359.131 C 93.153 358.835,93.153 358.352,93.109 358.057 C 93.064 357.761,93.027 358.003,93.027 358.594 M302.204 359.668 C 302.206 360.205,302.244 360.402,302.289 360.105 C 302.333 359.808,302.332 359.368,302.286 359.128 C 302.240 358.888,302.203 359.131,302.204 359.668 M304.157 359.863 C 304.159 360.400,304.197 360.597,304.242 360.300 C 304.287 360.003,304.285 359.564,304.239 359.323 C 304.193 359.083,304.156 359.326,304.157 359.863 M290.429 362.540 C 290.376 364.334,290.400 365.733,290.484 365.650 C 290.567 365.566,290.611 364.098,290.581 362.387 L 290.526 359.277 290.429 362.540 M292.261 363.379 C 292.261 364.561,292.293 365.019,292.332 364.397 C 292.371 363.776,292.371 362.809,292.331 362.249 C 292.292 361.689,292.260 362.197,292.261 363.379 M92.827 363.086 C 92.827 363.569,92.865 363.767,92.911 363.525 C 92.958 363.284,92.958 362.888,92.911 362.646 C 92.865 362.405,92.827 362.603,92.827 363.086 M304.346 363.184 C 304.348 363.613,304.388 363.766,304.435 363.523 C 304.482 363.280,304.480 362.929,304.431 362.742 C 304.382 362.555,304.344 362.754,304.346 363.184 M94.772 363.281 C 94.772 363.657,94.812 363.811,94.861 363.623 C 94.910 363.435,94.910 363.127,94.861 362.939 C 94.812 362.751,94.772 362.905,94.772 363.281 M302.389 363.281 C 302.389 363.657,302.429 363.811,302.478 363.623 C 302.528 363.435,302.528 363.127,302.478 362.939 C 302.429 362.751,302.389 362.905,302.389 363.281 M179.932 364.355 C 179.934 364.785,179.974 364.938,180.021 364.695 C 180.068 364.452,180.066 364.100,180.017 363.914 C 179.968 363.727,179.930 363.926,179.932 364.355 M297.363 365.625 L 292.090 365.732 297.303 365.776 C 300.616 365.804,302.560 365.749,302.637 365.625 C 302.703 365.518,302.730 365.449,302.697 365.474 C 302.664 365.498,300.264 365.566,297.363 365.625 M61.670 365.771 C 67.390 365.800,76.750 365.800,82.471 365.771 C 88.191 365.743,83.511 365.719,72.070 365.719 C 60.630 365.719,55.950 365.743,61.670 365.771 M96.739 365.771 C 97.900 365.805,99.745 365.805,100.841 365.771 C 101.936 365.736,100.986 365.708,98.730 365.708 C 96.475 365.708,95.579 365.736,96.739 365.771 M108.936 365.771 C 111.433 365.802,115.520 365.802,118.018 365.771 C 120.515 365.740,118.472 365.715,113.477 365.715 C 108.481 365.715,106.438 365.740,108.936 365.771 M284.033 365.769 C 284.651 365.808,285.662 365.808,286.279 365.769 C 286.897 365.731,286.392 365.699,285.156 365.699 C 283.921 365.699,283.416 365.731,284.033 365.769 M314.487 365.771 C 319.608 365.800,328.046 365.800,333.237 365.771 C 338.428 365.743,334.238 365.719,323.926 365.719 C 313.613 365.719,309.366 365.742,314.487 365.771 M346.041 365.766 C 346.387 365.809,347.003 365.810,347.408 365.768 C 347.813 365.725,347.529 365.690,346.777 365.689 C 346.025 365.688,345.694 365.723,346.041 365.766 M124.772 367.725 C 166.058 367.752,233.558 367.752,274.772 367.725 C 315.986 367.697,282.207 367.675,199.707 367.675 C 117.207 367.675,83.486 367.697,124.772 367.725 " stroke="none" fill="#846a46" fill-rule="evenodd"></path></g></svg>